<svg xmlns="http://www.w3.org/2000/svg" xmlns:xlink="http://www.w3.org/1999/xlink" viewBox="0 0 588.55 414.99"><defs><style>.cls-1{fill:url(#linear-gradient);}.cls-2{fill:#6babb6;opacity:0.25;}.cls-3{fill:url(#linear-gradient-2);}.cls-4{fill:#fecf0a;}.cls-5{fill:#ee2c28;}.cls-23,.cls-6{fill:#ab2b2b;}.cls-21,.cls-7{fill:#f47421;}.cls-15,.cls-27,.cls-8{fill:#231f20;}.cls-8{opacity:0.36;}.cls-30,.cls-9{fill:#722914;}.cls-10{fill:#3b577f;}.cls-11{fill:url(#linear-gradient-3);}.cls-12{fill:#254163;opacity:0.61;}.cls-13{fill:#fff;}.cls-14{fill:url(#linear-gradient-4);}.cls-16,.cls-17,.cls-24{fill:#a54623;}.cls-16,.cls-27{opacity:0.43;}.cls-17{opacity:0.21;}.cls-18{fill:#af4d26;}.cls-19{fill:#1d3751;}.cls-20{fill:#fcc59a;}.cls-21,.cls-30{opacity:0.32;}.cls-22{fill:#abdde8;}.cls-23{opacity:0.4;}.cls-24{opacity:0.18;}.cls-25{fill:#a55826;}.cls-26{fill:#b3b3b3;}.cls-28{fill:url(#linear-gradient-5);}.cls-29{fill:url(#linear-gradient-6);}.cls-31{fill:url(#linear-gradient-7);}.cls-32{fill:url(#linear-gradient-8);}.cls-33{fill:url(#linear-gradient-9);}.cls-34{fill:url(#linear-gradient-10);}.cls-35{fill:url(#linear-gradient-11);}.cls-36{fill:#f7911e;}</style><linearGradient id="linear-gradient" x1="541.22" y1="245.88" x2="442.8" y2="330.36" gradientUnits="userSpaceOnUse"><stop offset="0" stop-color="#375e8b"/><stop offset="0.72" stop-color="#fecf0a"/></linearGradient><linearGradient id="linear-gradient-2" x1="-3.28" y1="420.42" x2="142.63" y2="420.42" gradientTransform="translate(186.56 -6.25) rotate(25.2)" xlink:href="#linear-gradient"/><linearGradient id="linear-gradient-3" x1="117.24" y1="212.48" x2="162.65" y2="212.48" gradientUnits="userSpaceOnUse"><stop offset="0" stop-color="#fff"/><stop offset="0.72" stop-color="#375e8b"/></linearGradient><linearGradient id="linear-gradient-4" x1="271.25" y1="293.63" x2="271.25" y2="572.14" xlink:href="#linear-gradient"/><linearGradient id="linear-gradient-5" x1="434.67" y1="151.27" x2="470.69" y2="229.12" xlink:href="#linear-gradient"/><linearGradient id="linear-gradient-6" x1="623.23" y1="339.92" x2="661.62" y2="339.92" gradientTransform="translate(914.66 -254.52) rotate(105.15)" gradientUnits="userSpaceOnUse"><stop offset="0" stop-color="#f47421"/><stop offset="0.41" stop-color="#fecf0a"/></linearGradient><linearGradient id="linear-gradient-7" x1="636.76" y1="325.38" x2="655.01" y2="325.38" xlink:href="#linear-gradient-6"/><linearGradient id="linear-gradient-8" x1="605.34" y1="313.08" x2="623.6" y2="313.08" gradientTransform="translate(914.66 -254.52) rotate(105.15)" gradientUnits="userSpaceOnUse"><stop offset="0" stop-color="#fbb368"/><stop offset="1" stop-color="#fffdf4"/></linearGradient><linearGradient id="linear-gradient-9" x1="594.65" y1="330.87" x2="610.02" y2="330.87" xlink:href="#linear-gradient-8"/><linearGradient id="linear-gradient-10" x1="612.97" y1="340.38" x2="618.95" y2="340.38" xlink:href="#linear-gradient-8"/><linearGradient id="linear-gradient-11" x1="379.88" y1="238.76" x2="416.81" y2="238.76" gradientTransform="translate(348.78 -287.66) rotate(76.43)" xlink:href="#linear-gradient-8"/></defs><title>Get Started</title><g id="Background"><path class="cls-1" d="M407,445.59s7.9-21.21,22.61-38.89,57.81-83.84,66-104.91,2.58-29.29-9.54-28.65c0,0-2.38-.88-6,3.06s-11.52,3.81-11.92,0,.6-2.65-1.19-4.52.79-5.85-3-4.85-7.15,1.39-6.76-1-4.57-9.22.2-13.75,7.35-2.23,13.12-17.09,8.54-21.21,5-17.64-11.32,13.59-11.32,13.59S484.23,195.5,496,187.15s8.74,2.83-1,16.22-17.48,30.76-15.89,32.7,12.32-7.13,10.73-2.49-4,7.47-2.39,7.94,4.18,1.65,1.59,6.23-1.39,10.63,8.55-1.14,39.73-39.59,39.14-30.45-36.16,36.2-31.79,53.37,17.68,9.81,8.94,27.89A105.76,105.76,0,0,1,493,326.63s13.71-8.74,20.86-17.68,20.86,1.39,9.54,25.63-64,46.89-75.7,64.57-5.37,14.51-1.2,13.11,11.93-2.18,6.16,1.79-13.51,7.75-12.91,8.94,9.34-.59,5.56,2.59-28.11,14.07-33,26.6S407,445.59,407,445.59Z" transform="translate(-3.89 -98.72)"/><path class="cls-2" d="M421.87,453.46s5-15.26,45.44-30.88,58.6-25.68,60.83-36-14.23-3.35-22.6.28,8.65-5.69,8.65-5.69,2.79-5.41-12.56,0-16.74-3.8,20.93-16.64,45.49-10.33,45.49-10.33-19.23,5-15.9,15.48S544.89,386,546.84,395s-8.37,15.63-41,25.95S435.88,436.07,421.87,453.46Z" transform="translate(-3.89 -98.72)"/><path class="cls-3" d="M132,444.78s-11.24-16.34-38.65-20-52.68-3.08-71.69-26.14-20.84-25.85-14.44-25,19.29,5.43,19.29,5.43-7.57-12.79-3.9-11.3,13.21,6,11.25,2.38-5-7.94-5-7.94,20.25,4.43,33,15.52l12.74,11.1a37.42,37.42,0,0,0-24.3-9.74c-14.74-.14-10.37,11.53,20,25.6S127.25,423.92,132,444.78Z" transform="translate(-3.89 -98.72)"/><path class="cls-2" d="M188.39,462.67s-.45-18.05-10.64-24.37-2.51-16-15.24-24.25.67-5.89,3.92-4.07,7.16-5.72-21.39-16.29-71.4-19.4-71.4-19.4,30.69-4.19,45.71,1.76,11.09,1.89,6.37-.7-25.08-15.77-28.93-18.13,2-1.73,2-1.73S79.05,340.6,77,334.43s3.23-5.67,10.17,1.83,8.92,8.44,8.92,8.44-14.35-23.57-11.67-54.07,12-49.16,31.57-49.43c0,0-8.76,2-10.84,15.79s7.87,15.08,10.24,9.81,6.09,1,13.75,4.47,23.5,7.78,16.48,7.46-21.36-5.33-31,3.45-17.68,36.15-3.18,61.23,22.15,23.78,45,40.84S196.28,445.33,188.39,462.67Z" transform="translate(-3.89 -98.72)"/><path class="cls-2" d="M400.33,365.37s36.63-26.8,54.45-40.95,16.5-21.81,8.16-25-19,.6-19,.6,16.84,9.57,2.91,14.46-2.08,4.65-9,11.79S400.33,365.37,400.33,365.37Z" transform="translate(-3.89 -98.72)"/><path class="cls-4" d="M179.18,226.45s-26.51-36.84-39.07-55.81-8.93-25.85,0-26.32S158,150.78,158,150.78s-19,3.88-7.26,12.84.54,5.06,4.88,14S179.18,226.45,179.18,226.45Z" transform="translate(-3.89 -98.72)"/><path class="cls-4" d="M528.06,340.45s34.73-29.22,51.56-44.54,15-22.87,6.45-25.51-18.89,1.88-18.89,1.88,17.44,8.42,3.88,14.24-1.76,4.77-8.15,12.36S528.06,340.45,528.06,340.45Z" transform="translate(-3.89 -98.72)"/><path class="cls-4" d="M74.1,350.37s-34.73-29.21-51.56-44.53-15-22.87-6.45-25.52S35,282.2,35,282.2s-17.44,8.42-3.88,14.24,1.76,4.77,8.15,12.37S74.1,350.37,74.1,350.37Z" transform="translate(-3.89 -98.72)"/><path class="cls-5" d="M124.19,172.4c-.42,17-17.87,22.74-17.87,22.74l-1.53-.42C103.25,194.3,93.34,180,93.34,180c9.21-6.06,10.74-17.09,10.61-21a3.42,3.42,0,0,0-.21-.95C102.18,153.43,92,142.88,92,142.88a6.32,6.32,0,0,1,4.88-2.72,4.84,4.84,0,0,1,1.7.11c2.9.7,5.62,4.11,10.33,10.08,5.6,7.12,15.33,3.77,15.33,3.77S124.6,155.38,124.19,172.4Z" transform="translate(-3.89 -98.72)"/><path class="cls-6" d="M103.74,158.05C102.18,153.43,92,142.88,92,142.88a6.32,6.32,0,0,1,4.88-2.72,4.84,4.84,0,0,1,1.7.11C102.11,145.59,106.15,153.26,103.74,158.05Z" transform="translate(-3.89 -98.72)"/><path class="cls-7" d="M74.1,249.84s-21.64-8.29-13.27-30.65c0,0-14.23,8.56-21.2.63,0,0-11.45,19.48-1.68,32.56S56.65,266.47,58.88,271l2.23,4.52S76.76,259.05,74.1,249.84Z" transform="translate(-3.89 -98.72)"/><path class="cls-4" d="M388.91,189.8s-2.51-.66-8.37.82a16.44,16.44,0,0,1-11.05-1.46s-.15-2.22-1-7a11.49,11.49,0,0,1,.06-4.06,17.53,17.53,0,0,1,2.05-5.49s4.69,5.89,5.63,5.84a2.25,2.25,0,0,0,.47-.11c1.83-.48,7.37-2.65,7.37-2.65Z" transform="translate(-3.89 -98.72)"/><path class="cls-8" d="M376.72,178.31c-2,.76-4.29,1.33-6.1.78a7.28,7.28,0,0,1-2.05-1,17.53,17.53,0,0,1,2.05-5.49s4.69,5.89,5.63,5.84A2.25,2.25,0,0,0,376.72,178.31Z" transform="translate(-3.89 -98.72)"/><path class="cls-7" d="M540.7,194s-6.85,13.32-9.21,22.95-13.41,14.65-13.41,14.65c1.12-8.23-14.5-21.41-14.5-21.41,14.5-9.56,14.22-20.35,14.22-20.35l0-.1-4.84-17.12s3.38-2.1,5.91-.25A6.22,6.22,0,0,1,521,176C523,183.11,540.7,194,540.7,194Z" transform="translate(-3.89 -98.72)"/><path class="cls-9" d="M519.9,181.19a26.49,26.49,0,0,1-2.13,8.51l-4.84-17.12s3.38-2.1,5.91-.25A31,31,0,0,1,519.9,181.19Z" transform="translate(-3.89 -98.72)"/><path class="cls-10" d="M114,404.31s0-5.31-5.86-5.06-14,3.22-18.42.47-4.4-9.86-4.4-9.86l-15.7,10.67s2.1,9,10.26,13.72,18.21.57,21.56,1.48l3.35.92Z" transform="translate(-3.89 -98.72)"/><path class="cls-4" d="M139.53,333.63,132,322.68l9.22-7.75s2.3,9.84,2.72,10.89S139.53,333.63,139.53,333.63Z" transform="translate(-3.89 -98.72)"/><path class="cls-10" d="M495,343.86s25.63-2.41,33.1-14,0-19.78,0-19.78L554,327.38s-12.84,16.75-20.1,19.7L526.6,350Z" transform="translate(-3.89 -98.72)"/><polygon class="cls-5" points="536.81 317.01 550.06 316.37 550.06 330.37 532.81 324.2 536.81 317.01"/><path class="cls-11" d="M162.65,215.75a12.06,12.06,0,0,1-1.42,3.92c-4.18,7.67-15.63,16-15.63,16l-28.36-29.4,16.53-17.07h4.4Z" transform="translate(-3.89 -98.72)"/><path class="cls-12" d="M162.65,215.75a12.06,12.06,0,0,1-1.42,3.92c-8.41-7.67-21-23.19-26.81-30.43h3.75Z" transform="translate(-3.89 -98.72)"/><ellipse class="cls-13" cx="133.63" cy="208.6" rx="1.68" ry="3.19" transform="translate(-103.66 26.85) rotate(-37.77)"/><path class="cls-2" d="M162.65,461.09s-136.56,3.57-108.45,9,74,13.29,63,16.64,5,12.94,38.35,12.61,42.43,12.5,99,14.18,51-10.82,51-10.82,119.24-10.65,133-12.19,129.62-6.74,102.13-16.42-107.2,4.94-113.12.14,18.26-13.19-41.27-9.83S162.65,461.09,162.65,461.09Z" transform="translate(-3.89 -98.72)"/></g><g id="Chair"><path class="cls-14" d="M410.51,466.18c-26.41,14.4-54.2,23.17-81.59,28.05-37.52,6.68-74.29,6.07-105.7,2.64C169.91,491.09,132,477.21,132,477.21l36.48-118.4,0-.09c11.84-5.13,29-8.48,48.36-10.58,50.1-5.47,115.36-2.71,144-1.06,9.11.52,14.5.94,14.5.94l2.44,8.19Z" transform="translate(-3.89 -98.72)"/><path class="cls-15" d="M377.78,356.21c-18.95,8.84-47.49,16.49-88.95,15.58-54.81-1.19-95.72-7.71-120.36-13l0-.09C220.65,336.15,375.34,348,375.34,348Z" transform="translate(-3.89 -98.72)"/><path class="cls-8" d="M223.22,496.87C169.91,491.09,132,477.21,132,477.21l36.48-118.4,0-.09c11.84-5.13,29-8.48,48.36-10.58-15.7,27.38-43.23,83.44-25.86,114.42C199.28,477.3,211.21,488.52,223.22,496.87Z" transform="translate(-3.89 -98.72)"/><path class="cls-8" d="M410.51,466.18c-26.41,14.4-54.2,23.17-81.59,28.05,19.72-13.23,43.56-35.74,48.86-69.33,4.46-28.25-5.38-56.24-16.94-77.82,9.11.52,14.5.94,14.5.94l2.44,8.19Z" transform="translate(-3.89 -98.72)"/></g><g id="Body"><path class="cls-7" d="M366.16,213.69c-.39,5.58-2.19,13.73-4.74,22.84h0c-.9,3.24-1.92,6.6-3,10C351,270.12,340.26,296,335.86,300.29c-5.67,5.5-56.07,12-92.29,14.64-13.28.95-24.64,1.38-31.2,1.05-4.81-.25-8-1.08-10.09-2.31-8.45-5.05,2.63-16.75,4.65-22,2.5-6.49,6.27-52.33.62-70.53-.14-.46-.28-.91-.4-1.35-3.22-11.1-1.75-16.34,5.42-21.83.24-.19.5-.38.77-.57,3.78-2.74,9-5.6,15.77-9.32a96.55,96.55,0,0,1,20.64-7.93c1.2-.33,2.4-.64,3.59-.94s2.25-.57,3.37-.81l.41-.1a217.16,217.16,0,0,1,29.13-4.46c9.35-1,20.28.92,31,4.36,2.43.77,4.85,1.63,7.24,2.55,20.09,7.73,37.92,19.84,41.11,26.59C366.2,208.66,366.36,210.84,366.16,213.69Z" transform="translate(-3.89 -98.72)"/><path class="cls-16" d="M366.16,213.69c-1.49-1.25-3.09-2.46-4.76-3.62-13.16-9.06-24.71-11.51-35.5-10.4s-21.86-.9-50.63-7.52-43,2.23-50.23,5.27c-2.82,1.18-7.65,1.11-12.47.57.24-.19.5-.38.77-.57,3.78-2.74,9-5.6,15.77-9.32a96.55,96.55,0,0,1,20.64-7.93c1.2-.33,2.4-.64,3.59-.94s2.25-.57,3.37-.81l.41-.1a217.16,217.16,0,0,1,29.13-4.46c9.35-1,20.28.92,31,4.36,2.43.77,4.85,1.63,7.24,2.55,20.09,7.73,37.92,19.84,41.11,26.59C366.2,208.66,366.36,210.84,366.16,213.69Z" transform="translate(-3.89 -98.72)"/><path class="cls-17" d="M289.16,250.54l-6.89,14.09s-.83-5.44-1.11-9.91-8.93-10.32-16.61-15.35-9.34-13.67-12.13-17.77,3.07-10.41,3.48-13.56-6.55-2.43-8.51-4.31c-1.43-1.39,1-16,2.36-23.56,1.2-.33,2.4-.64,3.59-.94s2.25-.57,3.37-.81l20.9,54.67Z" transform="translate(-3.89 -98.72)"/><path class="cls-17" d="M361.4,236.54c-.9,3.24-1.92,6.6-3,10C351,270.12,340.26,296,335.86,300.29c-5.67,5.5-56.07,12-92.29,14.64-13.28.95-24.64,1.38-31.2,1.05-4.81-.25-8-1.08-10.09-2.31-8.45-5.05,2.63-16.75,4.65-22,2.5-6.49,6.27-52.33.62-70.53-.14-.46-.28-.91-.4-1.35-3.33-11.48-1.64-16.7,6.19-22.4A52.94,52.94,0,0,1,228.55,225c5.31,24.55.56,61.95,27.35,65.29s39.91-4.46,57.49-1.39,23.16-17.58,23.16-17.58S319,275,310.88,274.12C310.88,274.12,341.88,269.14,361.4,236.54Z" transform="translate(-3.89 -98.72)"/><path class="cls-18" d="M288.12,253.18s-1.11-.69-4.73-5.71-13.26-13.11-17.85-15.63-10.33-14.51-10.33-14.51a37.52,37.52,0,0,1,5.64-4.05c4.38-2.79,1.89-12.28.64-10.6s-12,0-12,0l.69-2.65c.58-2.23,2.54-16.29,3.16-20.8,1.27-.33,2.53-.63,3.78-.91.07,1.4.09,2.77,0,3.84-.21,3.91,4,14.66,6,17.87s3.62,16.18,4.6,20.78S284.9,241,287.3,245.56,288.12,253.18,288.12,253.18Z" transform="translate(-3.89 -98.72)"/><path class="cls-18" d="M281.72,270.08s11.16-19.26,21.07-28.89S316.46,214,316.46,214l-2.23-3.14s-8.86,23.3-15.14,30.07-15.35,15.7-16.4,20.72A41.86,41.86,0,0,0,281.72,270.08Z" transform="translate(-3.89 -98.72)"/><path class="cls-17" d="M326.62,198.2c-1.79,5.31-10.43,7.42-10.36,9.23s2.85,8,1.87,12.39-.14,13-10.18,22.35-23.3,23.07-23.3,23.07,12.81-24.05,15.82-28.94,6.92-34.8,10.27-38.88c2.27-2.77,5-12.95,6.49-19.2,2.43.77,4.85,1.63,7.24,2.55C325.77,185.52,327.89,194.4,326.62,198.2Z" transform="translate(-3.89 -98.72)"/><path class="cls-18" d="M310.67,205.54,321.76,200s3.46-15.21-3.33-21.35-6.85,18.81-6.85,18.81S308.44,204.83,310.67,205.54Z" transform="translate(-3.89 -98.72)"/><path class="cls-7" d="M288.83,248.44l-.71,1.23-.26.44S277.11,235.47,270,232.54s-13.53-16.47-13.53-16.47a11.34,11.34,0,0,0,1.07-1.26c4.4-5.86,2.7-13.25,2.7-13.25-3.49,1-8.66-.56-8.66-.56s2.38-16.18,2.52-20.09S263.85,166,263.85,166l3.14,1.17,3.22,1.2s.48,11.16-3.15,14.23-5.15,7.26-3.62,13.82a20.57,20.57,0,0,0,.93,2.85c3.07,8,11.61,23,13.58,27.7C280.18,232.26,288.83,248.44,288.83,248.44Z" transform="translate(-3.89 -98.72)"/><path class="cls-18" d="M267.06,182.58c-3.62,3.07-5.15,7.26-3.62,13.82a20.57,20.57,0,0,0,.93,2.85,27.78,27.78,0,0,1-3.45-15c.58-7,3.63-13.16,6.07-17.11l3.22,1.2S270.69,179.51,267.06,182.58Z" transform="translate(-3.89 -98.72)"/><path class="cls-16" d="M288.12,249.67l-.26.44S277.11,235.47,270,232.54s-13.53-16.47-13.53-16.47a11.34,11.34,0,0,0,1.07-1.26c1.94,3.69,6.22,11.34,10,14.66,5,4.46,6.61,1.54,12.79,9.35C283.71,243.15,286.39,247.05,288.12,249.67Z" transform="translate(-3.89 -98.72)"/><path class="cls-7" d="M320.51,198.63l-9.35,4.75,4.74,7.81s-5.58,18.83-18.55,33.65-15.63,25.24-15.63,25.24l-1.45-2.38c.2-2.34,1.46-6,3.1-9.92a182.06,182.06,0,0,1,8.11-16.59c2.52-4.47,15.22-38.09,15.77-51.49s-9.47-15.76-9.47-15.76a15.36,15.36,0,0,1,4.51-.8c6.12-.23,13.71,2.12,16.14,5.47C321.53,182.86,320.51,198.63,320.51,198.63Z" transform="translate(-3.89 -98.72)"/><path class="cls-16" d="M299.57,225c-1.67,3.48-5.08,15.32-16.2,32.77a182.06,182.06,0,0,1,8.11-16.59c2.52-4.47,15.22-38.09,15.77-51.49s-9.47-15.76-9.47-15.76a15.36,15.36,0,0,1,4.51-.8,15.53,15.53,0,0,1,7.48,12.37C310.6,196.26,301.25,221.52,299.57,225Z" transform="translate(-3.89 -98.72)"/><path class="cls-18" d="M226.6,279.35C221.53,291,209,306.07,202.28,313.67c-8.45-5.05,2.63-16.75,4.65-22,2.5-6.49,6.27-52.33.62-70.53-.14-.46-.28-.91-.4-1.35,4.92,3.31,10.6,10,15.47,23.12a47.83,47.83,0,0,1-10.31,51A95.11,95.11,0,0,0,226.6,279.35Z" transform="translate(-3.89 -98.72)"/><path class="cls-15" d="M358.41,246.55C351,270.12,340.26,296,335.86,300.29c-5.67,5.5-56.07,12-92.29,14.64,10.71-6.75,42.78-25.92,58.79-24.07,19.4,2.24,29,1.54,33.92-6.7s-2.94-10.6,9.62-22.88C352.78,254.55,356.48,249.63,358.41,246.55Z" transform="translate(-3.89 -98.72)"/><path class="cls-15" d="M255.49,176.16s-2.31,3.92-2.1,5.1S251,201.42,251,201.42s4.88,1.82,8.79.84c0,0,.85,5.14-.66,8.23a28.59,28.59,0,0,1-3.35,5.26,116.93,116.93,0,0,0,6,10.39,28.71,28.71,0,0,0,8.69,7.37c2.82,1.57,7.95,6.23,10.46,9.06s6.08,7.27,6.08,7.27l.37-.75s-7.65-10-8.85-11.13-5.65-4.24-6.49-5-.79-1.88-2.83-3.77-4.24-4-4.24-4,2.62,3.2,3.67,4.56a6,6,0,0,1,1.2,2.19s-5.65-3.61-8.21-7.9-4.5-7.79-4.5-7.79a21.51,21.51,0,0,0,4.08-8.2,12,12,0,0,0-.58-7.45s-3.5.73-5.54.11a9.62,9.62,0,0,1-2.57-1s2-14.36,2.25-16-.1-2.77.42-4.08a6.92,6.92,0,0,1,1.5-2.23l-1.18-1.23" transform="translate(-3.89 -98.72)"/><path class="cls-15" d="M318.32,181.19s2.95,8.25,1.07,16.23l-8.79,5.68,4.53,8.16s-4,12.21-8.65,19S293,249,288.83,254.65s-7,14.94-7,14.94,6.07-13.61,12.41-20.31,12.84-16.95,15.07-21.14,7.12-17.3,7.12-17.3l-4.26-7.11,8.79-4.89s.21-8,0-11a52.57,52.57,0,0,0-1.58-7.88l-1.09,1.18" transform="translate(-3.89 -98.72)"/><path class="cls-15" d="M254.39,178.22s-11,2.56-15.16,4.78-14.38,5.37-17.58,8.24a85.26,85.26,0,0,1-8.31,6.18s8.8-4.94,9.7-5.35,8.51-4.57,11.3-5.6,6.07-2.51,6.07-2.51a42.48,42.48,0,0,1-7.18,3.86L230,189s8.37-2.58,11-4.25a27.43,27.43,0,0,1,8.72-3.49,23.09,23.09,0,0,0,3.71-.77S255,178.94,254.39,178.22Z" transform="translate(-3.89 -98.72)"/><path class="cls-15" d="M319.41,180s12.89,4.11,18.12,8.16,6.77,5.09,11.65,7,9.49,5.72,10.74,6.63,2.16,1.42,2.16,1.42.52-.86-.68-2S348,191,343.11,188.17s-22.64-9.54-22.64-9.54L319.41,180" transform="translate(-3.89 -98.72)"/><path class="cls-9" d="M334,267.32s-12.45,5.71-17.51,6.28-12.21.73-12.21.73,12.71,1.14,18.39-.74A45,45,0,0,0,334,267.32Z" transform="translate(-3.89 -98.72)"/><path class="cls-18" d="M251.72,262.61s-12.35-7.22-15.18-15.28-5.86-19.78-5.86-19.78,4,19.36,4.08,21.35S243.76,261.77,251.72,262.61Z" transform="translate(-3.89 -98.72)"/><path class="cls-18" d="M247,266.74a28.69,28.69,0,0,1-5.75-1.5,40.17,40.17,0,0,1-4.24-2.63s3.35,4.18,4.24,4.71S247,266.74,247,266.74Z" transform="translate(-3.89 -98.72)"/><path class="cls-18" d="M349.15,219.82s-4.5,12-9.53,16.94-14.23,8.32-14.23,8.32,11.93-2.78,16.33-7.9S349,223.49,349.15,219.82Z" transform="translate(-3.89 -98.72)"/></g><g id="Right_leg" data-name="Right leg"><path class="cls-10" d="M431.86,412l-.14,0c-9,2.52-17.37,3.35-20.94,0s-12.14-16.52-14.22-22.6-12.36-23.9-14.24-27.33c-.64-1.17-.89-2.36-1.36-3.39-.91-2-2.62-3.46-9.52-3.18-10.46.42-43.19,1.8-55-3.61s-27.34,1.47-27.34,1.47-6.85-9-10-18.64a24.28,24.28,0,0,1-1.35-11c.82-5.17,1.65-10.26,2.32-14.38.93-5.62,1.6-9.48,1.6-9.48s13.32-7.27,27.34-6.25,60.91-6.73,77.24-2.95,24.7,13.18,28.25,35.16,29.3,59.85,31.18,66.76S440.79,409.43,431.86,412Z" transform="translate(-3.89 -98.72)"/><path class="cls-19" d="M381,358.72c-.91-2-2.62-3.46-9.52-3.18-10.46.42-43.19,1.8-55-3.61s-27.34,1.47-27.34,1.47-6.85-9-10-18.64a62.34,62.34,0,0,1,9-10s7.34,9.21,15.51,9.42,18.2,2.72,29.71,12.14,29.09-3.15,30.77-8.16,14-13.9,14.43-14.23c-.13.25-2.36,4.34-4.8,9.2-2.52,5-1.47,14-1.47,14s-.41-5.86,4.6-13.61c4.91-7.56,14.42-19.34,14.86-19.87-.31.59-10.48,19.43-11.71,29.93A53,53,0,0,0,381,358.72Z" transform="translate(-3.89 -98.72)"/><path class="cls-12" d="M431.86,412l-.14,0c-9,2.52-17.37,3.35-20.94,0s-12.14-16.52-14.22-22.6-12.36-23.9-14.24-27.33c-.64-1.17-.89-2.36-1.36-3.39-.91-2-2.62-3.46-9.52-3.18-10.46.42-43.19,1.8-55-3.61s-27.34,1.47-27.34,1.47-6.85-9-10-18.64a24.28,24.28,0,0,1-1.35-11c.82-5.17,1.65-10.26,2.32-14.38,6.91,4.6,20.25,12.37,29.7,11,13.27-1.89,26-7.75,45.71-3.15,19.24,4.5,26.86-.89,27.19-1.13l-4.12,7.75c.51-.81,4.78-7.34,8.11-8.81s7.1-7.47,7.32-7.83l-2.3,6.47s-10.66,29.09-1.67,40.39,20.31,10.88,22.4,30.56C414.12,400.3,423.1,408.93,431.86,412Z" transform="translate(-3.89 -98.72)"/><path class="cls-20" d="M483.21,457.33c-7.41,1.25-21.22,5.44-34.47,5.86s-13-16.05-13.81-17.45c-.48-.79-6-11.54-10.71-20.73l-3.41-6.66c-2-3.84-3.33-6.51-3.33-6.51,17.45-.7,23.87-11.31,23.87-11.31l2,3.15c1.24,1.94,2.94,4.62,4.76,7.45,2.9,4.55,6.1,9.54,8.15,12.71,4.61,7.12,15.35,14.65,22.33,18.13s31.81,2.38,32.78,8.52S490.6,456.07,483.21,457.33Z" transform="translate(-3.89 -98.72)"/><path class="cls-21" d="M448.12,411.13a50.06,50.06,0,0,1-6.91,8.66c-3.81,3.81-11.72,4.92-17,5.22l-3.41-6.66a14.84,14.84,0,0,1,2-.65c5.35-1.39,15.27-9.47,20.57-14C444.6,405.62,446.3,408.3,448.12,411.13Z" transform="translate(-3.89 -98.72)"/><path class="cls-7" d="M440.92,413.65c-3.9,6.14-19,6.8-21.48,7s-8.52.56-8.24-2.09a4.87,4.87,0,0,0-.24-2c-.74-2.27-2.9-4.84-5.48-7a2.11,2.11,0,0,1-.23-.19,4.8,4.8,0,0,1-1.07-6c3.3.08,4.09.9,12.19,2.85s11.43-1.26,13.11-4.88,7-9.35,9.77-11.45,1.92-6.54,1.92-6.54c2.88,0,3.39,1.24,4.08,3.47s5.16,7,6,9.77S444.83,407.52,440.92,413.65Z" transform="translate(-3.89 -98.72)"/><path class="cls-16" d="M411,416.58c-.74-2.27-2.9-4.84-5.48-7a2.11,2.11,0,0,1-.23-.19,23.59,23.59,0,0,0,8.88,1.17c10.47-.56,14.44-1.89,15.08,0C429.69,412.08,419.05,415.94,411,416.58Z" transform="translate(-3.89 -98.72)"/><path class="cls-5" d="M519.9,458c-2.08,1.75-6,3-12.28,4.54-7.25,1.76-17.59,3.87-31.68,7.46-26.23,6.7-35.58,5.17-37.8,2.94-.88-.88-1.71-3.24-2.47-6.1-.71-2.7-1.34-5.85-1.86-8.66-.34-1.75-.61-3.37-.84-4.64a21.73,21.73,0,0,0-.84-3.24c-1.39-4.23-3.73-8.06-4.69-10.29-1.21-2.79,2.47-3.93,2.47-3.93,2.54,4.94,10,4.9,14.92,1.83s5.58-11.72,7.26-15.35a3.47,3.47,0,0,1,3.52-2,9,9,0,0,1,3.17.76s8.8,11.3,19.54,16.46c6.67,3.21,15.19,2.64,23.27,2.73,1.26,0,2.5,0,3.73.11a33.43,33.43,0,0,1,10,1.76c5.33,2,7.61,5,8,7.86A9,9,0,0,1,519.9,458Z" transform="translate(-3.89 -98.72)"/><path class="cls-6" d="M519.9,458c-2.08,1.75-6,3-12.28,4.54-9.38-9.07-8.33-17.11-6-22,4.9.05,9.64.34,13.71,1.87,5.33,2,7.61,5,8,7.86A9,9,0,0,1,519.9,458Z" transform="translate(-3.89 -98.72)"/><path class="cls-13" d="M462.41,470c-3.21.56-4.18-1.25-4.18-1.25s-2.24-12-6.91-13.82c-3.63-1.4-13.35,1.77-17.51,3.25-.34-1.75-.61-3.37-.84-4.64a21.73,21.73,0,0,0-.84-3.24,32.85,32.85,0,0,0,8.79-1.23c5.31-1.67,14.1-2.42,16.61,1.16s6.92,16.68,6.92,16.68S465.62,469.47,462.41,470Z" transform="translate(-3.89 -98.72)"/><path class="cls-22" d="M519.9,458c-4.46,3.77-17.72,5.31-44,12s-35.58,5.17-37.8,2.94c-.88-.88-1.71-3.24-2.47-6.1,6.13,1,23.67,2.66,49.48-3.66,25.16-6.16,34.94-9.32,38.15-12.95A9,9,0,0,1,519.9,458Z" transform="translate(-3.89 -98.72)"/><path class="cls-23" d="M505.32,440.63a26.32,26.32,0,0,1-2.76,7.62s-.53-.94-7.64-2.61-12.24,3.77-23.13-3.45c-7.87-5.23-13.62-16.05-16.18-21.62a9,9,0,0,1,3.17.76s8.8,11.3,19.54,16.46c6.67,3.21,15.19,2.64,23.27,2.73C502.85,440.53,504.09,440.56,505.32,440.63Z" transform="translate(-3.89 -98.72)"/><path class="cls-13" d="M475.6,439.62a21,21,0,0,1,5.83-.35l.05-.53a20.4,20.4,0,0,0-5.58.28,14.87,14.87,0,0,1,1.13-1.83l-.42-.33a15.16,15.16,0,0,0-1.39,2.3,35.79,35.79,0,0,0-7.79,2.61,20,20,0,0,1,.54-6.18,11.78,11.78,0,0,1,5.83-.07l.14-.52a12.2,12.2,0,0,0-5.8,0,10.26,10.26,0,0,1,1.32-3l-.42-.33a10.92,10.92,0,0,0-1.52,3.45,15.61,15.61,0,0,0-5.31,2.65l.34.41a15.19,15.19,0,0,1,4.82-2.46,20.72,20.72,0,0,0-.45,6.46l0,.4.35-.19a35.08,35.08,0,0,1,7.63-2.66A11.59,11.59,0,0,0,474,447l.52-.12A11.37,11.37,0,0,1,475.6,439.62Z" transform="translate(-3.89 -98.72)"/><path class="cls-13" d="M490.42,440.79v-.54A12.08,12.08,0,0,0,485,441.5a9.61,9.61,0,0,1,.77-1.44l-.44-.31a10.91,10.91,0,0,0-1.09,2.16,12.6,12.6,0,0,0-4.95,5.71l.51.19a11.92,11.92,0,0,1,4.17-5.07,8.59,8.59,0,0,0-.05,5l.51-.16a8.42,8.42,0,0,1,.26-5.34A11.26,11.26,0,0,1,490.42,440.79Z" transform="translate(-3.89 -98.72)"/><path class="cls-15" d="M292.49,333.63s2.9,8.3,11.76,9,14-.42,17.65,3.21a25.65,25.65,0,0,0,8.4,5.34l-.59,2.91s-7.67-.25-10.6-2.16-9.49-4.66-14.86-3.91-10.32,1.75-10.32,1.75S292.66,335.37,292.49,333.63Z" transform="translate(-3.89 -98.72)"/><path class="cls-15" d="M379,288.07s16.19,1.64,25.68,11.42,10.18,21.65,10.88,25.56,5.86,20.37,10.32,27.63,5.92,13.81,8.61,17.3,6.9,11.28,7.45,13.46.49,5.84-2.38,7.3-10,10.64-10,10.64,2.29-6.84,5-9.63,6.74-6,5.21-8.36S425.72,358,424.32,355.33a54.4,54.4,0,0,1-2.51-5.65,50.81,50.81,0,0,0,3.49,11.93l2.37,4.88s-5.21-6.7-6.86-13.4-2.63-10.6-3.33-13-3.35-12.42-4.6-17-2.93-14.93-8.09-20.51-16.75-10.46-25-11.3S379,288.07,379,288.07Z" transform="translate(-3.89 -98.72)"/><path class="cls-15" d="M378.94,356.5s-3.88-6.48-1.16-13.59a70.18,70.18,0,0,1,5.8-11.86s-6.7,16.88-.84,24.14,13.95,11.16,16.18,19.39,2.24,12.21,2.24,12.21.69-9,0-11.93a28.84,28.84,0,0,0-1.68-5s5.17,6.7,5.17,14.51-.84,11.24,2.09,14.9,7.39,6.9,10.74,7.25a22.88,22.88,0,0,0,5.3.05s-7,2.84-10,.38-8.56-3.52-8.56-3.52-4.42-7.19-6.65-11.59S385.74,360.05,378.94,356.5Z" transform="translate(-3.89 -98.72)"/><path class="cls-15" d="M404,402.08s-1.68,5.29-.39,6.48,6.46,4.34,6.74,6.53a21.74,21.74,0,0,1,.21,3.52,3.66,3.66,0,0,0,2.51,2.44c2.16.77,10,.21,12,0s14.16-3.84,15.28-5.44,3.55-6.2,3.55-6.2-4.53,5.14-8.93,7.17-15.55,3.7-18.48,3.49-5-1.39-5-2.72-.56-2.87.21-3a42,42,0,0,0,6.45-1.34l2-.74s-8.93,1.88-10.67.14-4.33-3.4-4.81-5.12.67-4.09.67-4.09Z" transform="translate(-3.89 -98.72)"/><path class="cls-15" d="M421.32,420.76l9.07,16.89s1.67,2.46,6.07,2.87a10.92,10.92,0,0,0,7.39-2s-6.62,2.23-10,.28a12.1,12.1,0,0,1-4.66-4.82l-6.44-13.19Z" transform="translate(-3.89 -98.72)"/><polygon class="cls-15" points="441.05 309.21 447.43 317.42 441.85 308.12 441.05 309.21"/><path class="cls-15" d="M429.22,435.48s-3.82,1.43-2.39,3.85,5.09,10.95,5.76,14.51,2.54,14.86,3.87,17.44,5.37,4.74,14,4.05,32.31-6.14,34.36-6.84,19.36-5,19.36-5-19.67,3.41-26,5.37-24.21,5-28.67,5.37-10.12.49-11.86-3.28-3.21-14.37-3.49-16a70.57,70.57,0,0,0-2.65-8c-.56-1.35-3.91-6.87-3.28-8.12a5,5,0,0,1,2.09-2Z" transform="translate(-3.89 -98.72)"/><path class="cls-15" d="M457.9,421a63.1,63.1,0,0,0,12.81,12.69c7.26,5.07,10.84,6.1,16.87,6.89a82.84,82.84,0,0,0,12.79.43s-1.4,5.09-.84,7.95a10,10,0,0,0,1.48,4s-1.55-5.2-.78-8a24.41,24.41,0,0,1,1.39-4.05s11.36-.08,16,3.28,4.93,5.34,4.67,8.3-3.13,6.23-8.58,8.38c0,0,8.39-2.52,9.6-6.77s-.18-8.79-5.48-11.24A37.17,37.17,0,0,0,501,439.75c-4.6.41-14.65.2-18.62-1.12A38.24,38.24,0,0,1,470,431.7c-3.21-2.91-7.75-6.61-8.51-7.86S459.84,420.68,457.9,421Z" transform="translate(-3.89 -98.72)"/><path class="cls-15" d="M441.69,445.4s6.63-2.1,9.63-6.84,2.58-7.9,2.58-7.9a16.76,16.76,0,0,1-2.37,9.09C448.88,443.72,446,446.3,441.69,445.4Z" transform="translate(-3.89 -98.72)"/></g><g id="Left_leg" data-name="Left leg"><path class="cls-10" d="M293.93,329c-1,6.29-1.45,11.56-1,14.41.11.64.23,1.36.34,2.13.36,2.22.74,4.94,1.06,7.78.82,7.06,1.27,14.95.05,18.34-1.89,5.23-6.7,27.21-7.12,33.49s-8,15.49-15.7,17.79-15.7-3.35-19-5.65-9.6-17.79-9-22.81c.56-4.62-6.84-23.41-7.36-31.44a10,10,0,0,1,0-1.84s-.85,0-2.31-.05c-7-.26-27.76-1.9-33.48-12.3-1-1.87-2-3.77-2.9-5.67a76.66,76.66,0,0,1-6-17c-.72-3.62-.75-6.5.09-8.11,0,0,55.47-51.8,70.13-51.34s42.67,16.59,38.7,31.87C298.09,307.78,295.42,319.53,293.93,329Z" transform="translate(-3.89 -98.72)"/><path class="cls-15" d="M236.14,363.86l-.06-.82a8.86,8.86,0,0,1,0-1.87l.08-.69.18.67a4.21,4.21,0,0,1,0,1.91Z" transform="translate(-3.89 -98.72)"/><path class="cls-12" d="M238.7,309.09c1.71,6.09,0,20.81-2.37,27.4S235,351.56,235,351.56l-1.05,9.58c-7-.26-27.76-1.9-33.48-12.3-1-1.87-2-3.77-2.9-5.67a76.66,76.66,0,0,1-6-17c3.4,2.28,7.15,4.27,10.14,4.44,7.33.42,13.19,13.4,13.61,9s-2.72-18.23,1-26,16.53-13.18,13.81-6.07-4,9.95-2.52,14.82,5.86,1.51,6.5-5.39,0-13.19,2.19-17.59,4.22-5.76,4.35-5.83c-.17.45-3.64,9.52-2,15.46Z" transform="translate(-3.89 -98.72)"/><path class="cls-19" d="M238.74,335.45c-4.39,11.09-2.51,25.74-2.51,25.74s-.85,0-2.31-.05c-7-.26-27.76-1.9-33.48-12.3-1-1.87-2-3.77-2.9-5.67,11.48,7.21,27.49,10.74,28.2,10.89-5.42-3.14-6.46-7.52-6.46-7.52,1.67,4,13.81,7.74,13.81,7.74s-9-7.74-11.3-15.07c-2.25-7.13,4.44-24.57,4.8-25.5a58.83,58.83,0,0,0,0,14.83c1.05,8.58,7.54,15.49,7.54,15.49a22.46,22.46,0,0,1,1.69-13.82c2.12-4.5,2.72-14.42,2.87-21.12.1-3.91,0-6.72,0-6.72S243.13,324.35,238.74,335.45Z" transform="translate(-3.89 -98.72)"/><path class="cls-19" d="M293,343.4c.11.64.23,1.36.34,2.13-2.43,8.48-5.19,21.52-5.19,21.52s.22-7.75,1.9-21.94A85.65,85.65,0,0,1,293.93,329C292.94,335.28,292.48,340.55,293,343.4Z" transform="translate(-3.89 -98.72)"/><path class="cls-12" d="M294.42,371.65c-1.89,5.23-6.7,27.21-7.12,33.49s-8,15.49-15.7,17.79-15.7-3.35-19-5.65-9.6-17.79-9-22.81c.56-4.62-6.84-23.41-7.36-31.44a10,10,0,0,1,0-1.84s-2.66-9.86,1.7-23.45,1.14-33.51,1.14-33.51,10.07,18.24,6.86,30.79-.92,30.56,4.95,40,9.21,10.89,7.11,20.1.21,19.25,10.89,19S280,399.28,284,393c3.29-5.19,8.57-28.36,10.42-39.69C295.19,360.37,295.64,368.26,294.42,371.65Z" transform="translate(-3.89 -98.72)"/><path class="cls-20" d="M282,484.54c-.7,7.25-22.19,7.81-26.93,2.36s-.15-8.64-.15-11.85c0-2.21-.33-27.67-.53-43.21,0-2.79-.08-5.26-.1-7.22,0-2.92-.06-4.69-.06-4.69-.07-5,5.3-1.25,10.47.84S278.09,418,278.09,418s-.12,1.68-.29,4.38c-.13,2-.3,4.47-.47,7.27-.76,11.95-1.8,29.2-1.61,32.16C276,466.4,282.69,477.28,282,484.54Z" transform="translate(-3.89 -98.72)"/><path class="cls-21" d="M277.8,422.36c-.13,2-.3,4.47-.47,7.27-3.2,1.26-9,3.52-12.63,4.6-3.15.94-7.4-.82-10.31-2.39,0-2.79-.08-5.26-.1-7.22,3.12,1.26,8.14,3.08,11,3.2C268.5,428,274.71,424.32,277.8,422.36Z" transform="translate(-3.89 -98.72)"/><path class="cls-7" d="M243.34,405.14s0,.31.06.84c.21,3.18,1,14.31,2.53,15.63,1.74,1.53,15,9.62,18.07,8.79s12.27-5.72,15.48-6.28,8.2-.7,8.64-4.89,3.14-7.81,2.9-10.32-1.63-5.58-1.77-7.26-.28-3.07-3.21-.56-15.63,15.91-26.23,11-13.88-9.91-13.88-9.91S243.08,401.12,243.34,405.14Z" transform="translate(-3.89 -98.72)"/><path class="cls-5" d="M288.66,496.39c-.63,1.68-8.48,6.5-24.81,5.76s-20.92-5.76-21.45-7.64c-.38-1.37.13-3.34.35-4.79a5.91,5.91,0,0,0,.09-1,2.68,2.68,0,0,0,0-.42c-.21-1.25,2.3-10.78,5.13-15.49s3.14-9.42,3.14-13.4-.6-7.21-.11-7.11a5.54,5.54,0,0,0,6.07-2.1c2.31-3.13,8.59-6.17,13-2.61a49.22,49.22,0,0,0,4.34,3.28c1.16.71,1.74.78,2.15.38.73-.74,2.72.31,2.3,2.2s-.94,10.15,1.15,15.28c1.92,4.71,7.11,9.05,7.94,15.24a11.87,11.87,0,0,1,.12,1.71,47.59,47.59,0,0,0,.25,5.07C288.61,493.93,289.1,495.22,288.66,496.39Z" transform="translate(-3.89 -98.72)"/><path class="cls-6" d="M288.66,496.39c-.63,1.68-8.48,6.5-24.81,5.76s-20.92-5.76-21.45-7.64c-.38-1.37.13-3.34.35-4.79a2.6,2.6,0,0,1,.09-1c.37-1.43,1.92-4.25,8.25-7.12,9-4.08,15.91-5.44,24.38-3.67,6.12,1.3,10.06,3,12.44,6a11.87,11.87,0,0,1,.12,1.71,47.59,47.59,0,0,0,.25,5.07C288.61,493.93,289.1,495.22,288.66,496.39Z" transform="translate(-3.89 -98.72)"/><path class="cls-22" d="M288.66,496.39c-.63,1.68-8.48,6.5-24.81,5.76s-20.92-5.76-21.45-7.64c-.38-1.37.13-3.34.35-4.79a22.68,22.68,0,0,0,8.76,5.32c9.94,3.34,29.08,2.71,32.54.73a12.15,12.15,0,0,0,4.23-5C288.61,493.93,289.1,495.22,288.66,496.39Z" transform="translate(-3.89 -98.72)"/><path class="cls-23" d="M280,480.18s-1.35.41-6.07-.95-14.12,1.58-16.53,1.47-.94-2,.83-4.92,1.47-5.86,0-11.62a78.55,78.55,0,0,1-1.57-13.4,5.92,5.92,0,0,0,.42-.52c2.31-3.13,8.59-6.17,13-2.61a49.22,49.22,0,0,0,4.34,3.28,157,157,0,0,1-.47,16.49C273.17,473.06,280,480.18,280,480.18Z" transform="translate(-3.89 -98.72)"/><path class="cls-15" d="M251,452.34s-.83-1-.62,3.54,0,11-1.57,14.35-4,7.7-5.18,12.46-2.41,10.15-1.73,12.08,3.87,4.35,8.48,5.71a53.78,53.78,0,0,0,18.52,2.14c7-.52,12.66-1.46,15.8-2.93s4.82-2.62,4.76-3.72-1.37-7.32-1.39-8.78c0,0-.12,2.74-.28,3.36s-2.25,4.85-9.42,5.85a75.67,75.67,0,0,1-20.2-.43,40.73,40.73,0,0,1-6.49-1.61s.84,1.83,8.64,2.66,16.53.63,20.67-.1,4.55-2.09,5.28-2.77a14.36,14.36,0,0,0,1.73-2.36s.73,3.72.1,4.45-3,4.39-16.22,5.34-21-1.64-25.11-3.56-4.35-3.56-4.24-4.71.42-2.76.42-2.76l2.89,1.68s-2.74-2.64-2.32-4,7.48-7.06,15.23-9.1a47.55,47.55,0,0,1,14.7-1.41s-5-1.89-13,.1-13.6,5.34-14.75,6.33L244,485.56s1.47-8.16,4.5-11.72,3-10.57,3.09-11.93-.89-8.79-.05-8.89,4,.47,5.76-1.52,3.24-4.08,5.75-4.66a20.14,20.14,0,0,1,4.41-.53s-2.53-1.66-7.34,1S256.11,452.87,251,452.34Z" transform="translate(-3.89 -98.72)"/><path class="cls-13" d="M310,432.77c-.1.07-10.29,7.79-16.84,3.85a7.06,7.06,0,0,0-5.81-1,8.71,8.71,0,0,0-4.74,4.38c-2.1,4.29-8,11.76-8.39,12.27a69.08,69.08,0,0,1-7.87,4.94,40,40,0,0,1-9.37-3.45c-5.71-2.4-15.72-23.49-18.15-30.36-2.56-7.25-7.91-5.75-8-5.73l.16.51c.05,0,4.91-1.38,7.31,5.4s12.59,28.22,18.41,30.66a39.66,39.66,0,0,0,8.89,3.34,40.23,40.23,0,0,1-8.06,3.25l-.68.18.63.32a70.4,70.4,0,0,0,8.5,3.52,39.4,39.4,0,0,1-6.83,3.93l.2.5A41.34,41.34,0,0,0,266.6,465a26,26,0,0,0,7.37,1.42H274v-.53H274a24.64,24.64,0,0,1-6.81-1.28,89.85,89.85,0,0,0,7.38-5.93l.5-.45h-.67a37.66,37.66,0,0,1-7.28-.89,69.41,69.41,0,0,0,7.43-4.7l.05-.05c.06-.08,6.28-7.92,8.47-12.4,0,0,1.51-3.21,4.42-4.1a6.54,6.54,0,0,1,5.37,1c6.86,4.13,17-3.56,17.44-3.89Zm-36.27,26a91.12,91.12,0,0,1-7.16,5.68,70.7,70.7,0,0,1-8.18-3.3,43.28,43.28,0,0,0,8-3.39A39.07,39.07,0,0,0,273.68,458.76Z" transform="translate(-3.89 -98.72)"/><path class="cls-15" d="M203,306.49s37.12-32.23,50.79-38.23c0,0,7-4,14.25-1.53s27.05,10.89,31,21.7-1.19,27.69-2,30.76-5.63,20.51-6,23.86-1.92,10.35-1.92,10.35S290.35,334,292.31,329s8.39-29.9,5.73-38.13-14-16.71-23.72-19.87-16.19-4-26.09,2.43-39.35,31.26-41,32.51-1,14.76,2.65,18.47,3.68,9.18,4,12.51a36.29,36.29,0,0,0,2.27,8.19c.15.46-4.31-7.34-4.31-7.34a16.25,16.25,0,0,0,4.31,11.7c4.9,5.17,14.56,7.4,14.56,7.4a28,28,0,0,1-12.67,0c-6.2-1.67-8.75-3.21-8.75-3.21L208.88,333l-1.49-10.93s-4.51-14.32-4.37-15.58" transform="translate(-3.89 -98.72)"/><path class="cls-15" d="M235.76,353.55s-7.62-8.58-10.54-13.5,1.37-26.34,1.37-26.34-2.4,22.89,7.55,30.32c0,0-1.21-8.64,2.19-11.82s3.74-17.79,3.74-17.79,1.07,14.86-1.33,21S235.76,353.55,235.76,353.55Z" transform="translate(-3.89 -98.72)"/><path class="cls-15" d="M235.94,357.61s-1,8.49,1.54,15,5.45,19.25,5.17,21.62,1.67,8.35,3.9,10.31,11.17,8.89,15.49,9.68,11.09-3.35,11.09-3.35-8.72,4-16.11-1.29-10.73-6.61-11.09-10.43,2.86-9.81.62-16.92-12-25.11-10.37-35.58Z" transform="translate(-3.89 -98.72)"/><path class="cls-15" d="M286,401.09S290.89,379,293,373.61a32.63,32.63,0,0,0,2.2-9.76,94.17,94.17,0,0,1-1.24,11.83c-.91,4.34-5.81,24.08-5.81,24.08Z" transform="translate(-3.89 -98.72)"/><path class="cls-15" d="M244.22,399.72a9.41,9.41,0,0,0-1.95,9.33c1.91,5.37,1.32,13.7,4.28,14.34s11.31,7.21,13.68,7.74,6,1.34,8.37-.67,8.1-5.91,10.88-6.34c0,0-8,1.29-11.25,3.16s-7,3-9.3,1.82-11.54-7.34-12.24-8.74-2.79-11.7-2.51-13.81-.15-2.78,2.37-1.35a8.14,8.14,0,0,0,3.84,1.35Z" transform="translate(-3.89 -98.72)"/><polygon class="cls-15" points="249.69 327.68 250.7 348.59 250.44 328.55 249.69 327.01 249.69 327.68"/><polygon class="cls-15" points="272.75 325.93 272.34 349.37 273.76 325.97 272.75 325.93"/><path class="cls-15" d="M278.67,454.39s-1.73,8.15.31,13.28,6.29,9.5,6.82,10.5.67,1.27.67,1.27-2-4.86-3.1-6-4.13-5.65-4.29-8.22A86.21,86.21,0,0,1,278.67,454.39Z" transform="translate(-3.89 -98.72)"/></g><g id="Left_hand" data-name="Left hand"><path class="cls-7" d="M222.69,259.28c-8.64,41.07-23.78,34.49-18.58,52.29s5.62,23.72,4.91,30.36,2.4,26.23,3.85,29.86c.57,1.41-1.9,2.61-5.23,3.89-3.5,1.34-8,2.76-10.94,4.58a6.63,6.63,0,0,0-3,3.13c-1.95,5.71-9.77-6.85-10.33-8.53s-22-50.23-21.77-57.49,7.27-28.18,7.27-33.21c0-1-.11-2.56-.2-4.61a1,1,0,0,0,0-.17c-.37-8.45-.46-24.57,8-38.93,8-13.52,18.48-29.47,27.9-37.72,3.09-2.72,6.06-4.61,8.79-5.31,0,0,4.47,5.16,7.88,15.43S227,238.69,222.69,259.28Z" transform="translate(-3.89 -98.72)"/><path class="cls-16" d="M196.7,380.26a6.63,6.63,0,0,0-3,3.13c-1.95,5.71-9.77-6.85-10.33-8.53s-22-50.23-21.77-57.49,7.27-28.18,7.27-33.21c0-1-.11-2.56-.2-4.61,1.87,6.58,4,12.43,5.77,14.06,4.75,4.23-12.56,8.14-7.81,26.55s15.07,19.54,15.91,37.12C183,368,189.86,376.05,196.7,380.26Z" transform="translate(-3.89 -98.72)"/><path class="cls-16" d="M222.69,259.28c-8.64,41.07-23.78,34.49-18.58,52.29s5.62,23.72,4.91,30.36,2.4,26.23,3.85,29.86c.57,1.41-1.9,2.61-5.23,3.89-2.52-6.53-2.26-19.09-.29-30.57,2.5-14.69-15.91-32.48-10.65-42.74s-1.08-31,13.78-49.19c8.67-10.59,10.63-27.82,10.74-40.33C224.67,223.19,227,238.69,222.69,259.28Z" transform="translate(-3.89 -98.72)"/><path class="cls-16" d="M180.55,264.91c-1.67,12.28-3.07,23.44,2,31.53,4.38,7.09,4.94,8,5,8.08-.46-.38-12.55-10.71-18.89-25.14-.37-8.45-.46-24.57,8-38.93,8-13.52,18.48-29.47,27.9-37.72-4.44,6.08-8,12.84-7.85,18.87C197,237.57,182.23,252.63,180.55,264.91Z" transform="translate(-3.89 -98.72)"/><path class="cls-20" d="M238.87,421.47c-.55,1.11-3.44,3.49-3.44,3.49a14.16,14.16,0,0,1-1.13,3,7.15,7.15,0,0,1-2,2.47c-2.23,1.6-5.85,1.06-5.85,1.06s-.87.69-1.91,1.45c-.77.56-1.63,1.16-2.29,1.54-1.53.89-5.29-1.52-5.29-1.52a7.55,7.55,0,0,1-3,1.62,3,3,0,0,1-1.88-.1c-2.24-.93-2.93-4.38-8.23-11-.15-.18-.29-.37-.42-.55-4.9-6.43-5-12.21-4.47-17.92a17.63,17.63,0,0,0-.78-5.82c-.3-1.13-.66-2.28-1.06-3.43a89.54,89.54,0,0,0-3.83-9.17c5.78-12,18.37-10.9,18.37-10.9s1.25,2.39,3.07,9.19c1.26,4.71,6.53,9,10.48,11.9,1.76,1.29,3.26,2.3,4,3,2.51,2.12,1.54,6.81,1.64,8.63s3.8,6.28,4.54,8.23a1.48,1.48,0,0,1-1.29,2.2,3.38,3.38,0,0,1-1.68-.24c-1.71-.69-9.07-8.72-9.73-9.44l0-.05.29,6s6.13,3.59,7.91,4.42,4.26-.82,5.44-1S239.44,420.36,238.87,421.47Z" transform="translate(-3.89 -98.72)"/><path class="cls-21" d="M225.22,396.77c-4.17,2.23-14.94-11.72-17-11.9-1.39-.12-7.25,6.44-11.05,10.88a89.54,89.54,0,0,0-3.83-9.17c5.78-12,18.37-10.9,18.37-10.9s1.25,2.39,3.07,9.19C216,389.58,221.27,393.87,225.22,396.77Z" transform="translate(-3.89 -98.72)"/><path class="cls-21" d="M220.88,415.09A111,111,0,0,1,206,422.36a10.52,10.52,0,0,1-2.51.56c-4.9-6.43-5-12.21-4.47-17.92a17.63,17.63,0,0,0-.78-5.82c6.95,1.6,16.63.15,17.92,4.42A82,82,0,0,0,220.88,415.09Z" transform="translate(-3.89 -98.72)"/><path class="cls-21" d="M235.43,425a14.16,14.16,0,0,1-1.13,3,5.29,5.29,0,0,1-4.42-.79c-2.09-1.46-4.82-1.6-6.9-2.79a9,9,0,0,1-3.21-4l.83.55c.84.56,10.68,5.65,11.37,5.44S235.43,425,235.43,425Z" transform="translate(-3.89 -98.72)"/><path class="cls-21" d="M226.47,431.51s-.87.69-1.91,1.45a27.22,27.22,0,0,1-5.78-2.51,15.91,15.91,0,0,1-4.53-5.22s3.21,3.07,5.23,4S226.47,431.51,226.47,431.51Z" transform="translate(-3.89 -98.72)"/><path class="cls-21" d="M217,433a7.55,7.55,0,0,1-3,1.62c-2.36-1.71-3.72-6.94-3.82-7.32a12.76,12.76,0,0,0,1.45,1.82A40.65,40.65,0,0,0,217,433Z" transform="translate(-3.89 -98.72)"/><path class="cls-15" d="M213.34,197.42s-14.15,6.27-21.79,24.18-3.32,20.57-10.3,26.84-10.74,19.4-8.65,28.05,1.31,7.86,1.81,10.88,7.07,11.2,7.07,11.2-8.48-8.6-11-15.48c0,0,1.33,1.7-.62,4.28s3.49,4.33,0,9.77-8.23,12.56-5.86,22.19,11.83,23.16,13.66,31.11,7,26.65,10.71,30.14,3.82,4.29,3.82,4.29-9.76-6.71-9.63-9.21-14-35.4-14-35.4-7.73-20-7.87-22.05,9.19-32.66,7.87-37.47S166.6,253,179.14,235.19,198.26,201.79,213.34,197.42Z" transform="translate(-3.89 -98.72)"/><path class="cls-9" d="M211.25,362.11s-2.44-14.95-1.88-19.83a50.18,50.18,0,0,0-1.19-16.95c-1.46-6.35-5-18.14-4-21.7S216,287.51,218.72,280.4s4.47-23.65,4.47-23.65-4.75,20.79-9.6,28.32S203.37,300.21,202.74,302a8.65,8.65,0,0,0-.63,2.56s-.28-2.84.7-4.38l1-1.53s-4,4-2.93,7.81,6.69,13.67,6.14,22.47,2.16,6.27,1.46,16.21a43.59,43.59,0,0,0,2.86,18.25Z" transform="translate(-3.89 -98.72)"/><path class="cls-21" d="M234.14,418.78a3.38,3.38,0,0,1-1.68-.24c-1.71-.69-9.07-8.72-9.73-9.44l0-.05-1.46-3.85c.26.29,4.43,4.87,7.67,6.56S231.57,417.5,234.14,418.78Z" transform="translate(-3.89 -98.72)"/><path class="cls-4" d="M218,379.47a1.08,1.08,0,0,1-.69,1.07h0c-2.25,1-9.41-1.37-13.59,1-5,2.87-9.35,12.84-10.42,13.61s-1,0-2.91-4c-1.79-3.71-4.94-6.79-6-8.56a3,3,0,0,1-.22-.44c-.7-1.68,2.45-5.52,2.45-5.52s7.81-12.27,12.2-12.75,12.7-2.66,13.89-2.66,1.25,3.48,1.46,7.19S218,376.26,218,379.47Z" transform="translate(-3.89 -98.72)"/><path class="cls-24" d="M217.31,380.54c-2.25,1-9.41-1.37-13.59,1-5,2.87-9.35,12.84-10.42,13.61s-1,0-2.91-4c-1.79-3.71-4.94-6.79-6-8.56,2.95-4.89,8-13,10-14.46,2.86-2.16-2.75,4-1.07,8.22s5.85,6.78,7.75,5,7.49-3.83,10.55-2.58A52.68,52.68,0,0,0,217.31,380.54Z" transform="translate(-3.89 -98.72)"/><path class="cls-15" d="M198.45,363.85s-2.09,0-5.81,4.09-8.89,11.09-8.95,13,1.26,3.3,2.25,4.5,3.61,4.29,4.66,7.07,2.17,4.09,3.09,3.29,4.65-7.51,5.7-9.44,4.37-5.26,7.16-5.7c0,0-3.74.34-5.87,2.69a38.65,38.65,0,0,0-4.38,6.86s1.52-4,2.36-5l.84-.94a16.21,16.21,0,0,0-3.75,4.76c-1,2.36-2.22,5-3.42,3.72-1-1-1.29-4.53-1.75-6.61a5.35,5.35,0,0,0-.4-1.26,4.21,4.21,0,0,0-2.46-1.76,6.9,6.9,0,0,1,2.15,4l.42,2.56s-.79-3.56-1.73-4.24-4-2.82-3.87-4.34,7.79-11.61,9-13,3.77-3.88,7.16-4.52Z" transform="translate(-3.89 -98.72)"/><path class="cls-15" d="M195.12,392.65s3.64,6.28,3.5,10.61-.76,9.88,2,15.54,5.3,6.9,7,10.3,3.79,6.74,6,6A8.76,8.76,0,0,0,217,433l-.84-.53s-1.31,2.27-3.56,1.71-3.84-4.69-4.19-5.06-3.28-4.67-4-5.63l-.69-1,6.43-2.15s-6,3.06-8.18-1.06-3.21-8.58-2.86-10.81a36.57,36.57,0,0,0,.28-7.4c-.17-1.69-3.49-10.32-3.49-10.32Z" transform="translate(-3.89 -98.72)"/><path class="cls-15" d="M213.88,363.85s.42,5.19,1.42,7.38,3.09,5.6,3.14,7.33-1,3.39-3.56,2.72a32.83,32.83,0,0,0-5.62-.83s4-.37,5.2-.37,3.29.21,2.85-2.2-2.48-5.91-3-6.91S213.55,364.58,213.88,363.85Z" transform="translate(-3.89 -98.72)"/><path class="cls-15" d="M212.49,380.18s2.32,6.82,3.09,8a95,95,0,0,0,8.58,8.82c1.53,1.22,6.07,3.88,6.07,6.25s0,5.58.58,6.69,4,5.81,4.27,7-.14,1.69-1.26,1.87c0,0,1.64.16,1.92-1.29s-2-3.91-2.21-4.17-2.71-4.64-2.46-6.14.38-5.69-1.09-7.12-7.77-5.33-11-9-5.1-10-5.15-10.39S212.49,380.18,212.49,380.18Z" transform="translate(-3.89 -98.72)"/><path class="cls-15" d="M219.77,420.36a70.74,70.74,0,0,0,8.85,5.29c3.25,1.4,3.86,1.42,5.27.6a25,25,0,0,0,5.09-4.11c.49-.81-.37-2.15-.37-2.15s.72,1-1.58,3.12-3.84,3-5.37,2.82S219.77,420.36,219.77,420.36Z" transform="translate(-3.89 -98.72)"/><path class="cls-15" d="M214.25,425.23a17.46,17.46,0,0,0,6.11,4.54c3.59,1.46,6.9,2.65,9.69,1.81s3.32-1.55,3.91-2.48a15.38,15.38,0,0,0,1.16-3.07s-1.3,3.3-4.09,4.43-4.19.69-6.63,0S216.13,427.4,214.25,425.23Z" transform="translate(-3.89 -98.72)"/><path class="cls-15" d="M210.15,427.28a14.64,14.64,0,0,0,5.39,5.24c3.84,2.24,5.62,3,7.15,2.08a41.59,41.59,0,0,0,4.05-3l-.56-.28a20.83,20.83,0,0,1-3.66,2.45c-1.33.52-1.36.69-3.87-.46A23.37,23.37,0,0,1,210.15,427.28Z" transform="translate(-3.89 -98.72)"/></g><g id="Right_hand" data-name="Right hand"><path class="cls-15" d="M312.5,402.75s4.41,5,7.34,4.07,2.31-6.29,2.31-6.29S313.41,400.36,312.5,402.75Z" transform="translate(-3.89 -98.72)"/><path class="cls-7" d="M385.67,272.24c-3.14,9-6.07,28.46-5.23,36.83s-6.46,30-8.33,36-9.46,20.69-8.52,25.07-9.94,23-11.41,26.83-10.67,14.83-14.24,8.19S320.79,397,320.79,397a24.53,24.53,0,0,1-.16-6.5,9.15,9.15,0,0,1,1.41-4.17c2.51-3.53,5.44-17.62,7.53-31.39s10.69-26,10.69-26a130.52,130.52,0,0,0-.65-13.46c-.63-4.43-1.25-5.2-.4-11s.41-23.78.41-23.78a14.83,14.83,0,0,1-1-8.77.16.16,0,0,1,0,0c.08-.55.19-1.11.32-1.66a29.5,29.5,0,0,1,1.25-3.95h0c.31-.79.67-1.59,1-2.4,5.48-11.71,17.13-23.71,20.14-30a13.11,13.11,0,0,0,.69-1.7c3.42-10.1-.1-29.5-.1-29.5,9.75,6.88,16.69,23.42,20.6,38.79,1,3.75,1.72,7.42,2.31,10.86C386.47,261.56,386.74,269.16,385.67,272.24Z" transform="translate(-3.89 -98.72)"/><path class="cls-17" d="M363.06,247.82c-3.55,11.64-7.64,22.53-4.65,36.14s.76,20.71-3.68,28,6,3.95,1.51,11.5S343,342.14,345.07,353.44s-11.71,24.7-12.56,30.77a41.48,41.48,0,0,1-2.59,10.05s-5.51-.73-9.29-3.75a9.15,9.15,0,0,1,1.41-4.17c2.51-3.53,5.44-17.62,7.53-31.39s10.69-26,10.69-26a130.52,130.52,0,0,0-.65-13.46c-.63-4.43-1.25-5.2-.4-11s.41-23.78.41-23.78a14.83,14.83,0,0,1-1-8.77.16.16,0,0,1,0,0c.08-.32.62-2.51,1.57-5.61h0c1.59-5.16,4.31-12.9,8-19,6.07-10.05,10.79-18.63,10.21-21.14l-.58-2.51a39.11,39.11,0,0,1,4.26,8.55C363.68,236.69,364.74,242.35,363.06,247.82Z" transform="translate(-3.89 -98.72)"/><path class="cls-16" d="M385.67,272.24c-3.14,9-6.07,28.46-5.23,36.83s-6.46,30-8.33,36-9.46,20.69-8.52,25.07-9.94,23-11.41,26.83-10.67,14.83-14.24,8.19S320.79,397,320.79,397s-1.26-7.14,1.25-10.67,5.44-17.62,7.53-31.39,10.69-26,10.69-26a130.52,130.52,0,0,0-.65-13.46c-.63-4.43-1.25-5.2-.4-11s.41-23.78.41-23.78a15.81,15.81,0,0,1-.65-10.47,47.36,47.36,0,0,1,10.49-14.57,33.41,33.41,0,0,0-4.39,12.56c-.85,7,9.2,6.91,11.71,12.48s-1.25,15.77-6.9,21.63-2.94,20.08-2.94,20.08a74.63,74.63,0,0,1,7.79-2c4.21-.83,9.38,1.39,3.15,2.64s-4.49,3.35-4.49,3.35,6.54,0-3.51,3.77-8.59,9.21-6.7,19.51-7.54,26.33-12.55,31.82.2,11.68,7.73,10.83,12.77-7.32,12.14-18.21,16.33-29.51,15.95-39.63,8.8-15.92,3.73-30,2.09-28.94,6.91-34.44c2.84-3.27,5.85-11.52,7.81-17.7C386.47,261.56,386.74,269.16,385.67,272.24Z" transform="translate(-3.89 -98.72)"/><path class="cls-18" d="M385.67,272.24c-3.14,9-6.07,28.46-5.23,36.83s-6.46,30-8.33,36-9.46,20.69-8.52,25.07-9.94,23-11.41,26.83-10.67,14.83-14.24,8.19S320.79,397,320.79,397s-1.26-7.14,1.25-10.67,5.44-17.62,7.53-31.39,10.69-26,10.69-26a130.52,130.52,0,0,0-.65-13.46c-.63-4.43-1.25-5.2-.4-11s.41-23.78.41-23.78c-2.32-5-1.13-10.89,1.64-16.83-.89,4.54-1.31,8.72-.52,10.77,2.23,5.72,8,14.23,5.16,22.74a58.58,58.58,0,0,0-2.41,21.21,22.22,22.22,0,0,1,0,5.3s9.94-5,16.5-3.21c0,0-12.93,1.12-19.67,10.89,0,0,5.64-4.89,13.07-5.17,0,0-16.27,4.75-17.95,16.19s1.95,16.75-1.68,26.65-9.49,12.27-9.77,18,1.12,8.93,7.4,10,6.66-4.49,10.59-1.89,11-3.21,13.75-10.56c2.55-6.87,4-11.52,4.24-12.11-.36.9-4.42,10.93-6.58,12.11,0,0,5-8,5-17.22s12.4-20.91,15.33-35.87,6.06-19.16,4.81-29.41-5.05-20,1.05-32.29c3.36-6.78,3.52-19,3-28.56C386.07,255.22,387.14,268,385.67,272.24Z" transform="translate(-3.89 -98.72)"/><path class="cls-20" d="M334.6,416.58c-2.23,4.74-3.21,8.93-5,15.29-1.2,4.17-10.4,13.07-17.08,19.07-3.49,3.13-6.31,5.49-6.93,6-1.8,1.39-5.43-.14-7.39-.84a2.88,2.88,0,0,1-1.47-1.25,5.63,5.63,0,0,1-.76-2.23l-2-.71a4.8,4.8,0,0,1-2.82-3.93A7.77,7.77,0,0,1,291,446a4.51,4.51,0,0,1-3.1-4.17,4.85,4.85,0,0,1,.19-1.43v0l-2.83-1.26s.73-3.55,3.52-4,7.25,1.26,9.14.63,8.37-7.22,8.48-8.89v-.05c.08-1.68-1.58-4.34-2.73-3.94s-2.08,3.25-5,6.91a4.55,4.55,0,0,1-5.11,1.81c-.91-.38-1.3-1.14-.63-1.81,1.6-1.56,4.27-9.41,6.26-13.25,1.75-3.39,5.72-4.09,9.8-5.57.53-.2,1.07-.4,1.6-.64,4.61-2,11.31-10.65,11.31-10.65a9.45,9.45,0,0,1,3.19-.47,13.94,13.94,0,0,1,7.67,2.62,6.7,6.7,0,0,1,2.64,3.33C336.47,408.87,336.83,411.84,334.6,416.58Z" transform="translate(-3.89 -98.72)"/><path class="cls-21" d="M306.91,437.87c-.25.37-4.17,6.38-5.54,7a6.43,6.43,0,0,1-6.7,0,39.77,39.77,0,0,0-6.73-3.05,4.85,4.85,0,0,1,.19-1.43v0s7.27,2.25,9.05,3,3.4-.06,5.17-1.49S306.7,438.06,306.91,437.87Z" transform="translate(-3.89 -98.72)"/><path class="cls-21" d="M305.28,445.88c-.1.27-2,4.62-4.74,4.42a53.39,53.39,0,0,1-9.43-2.35A7.77,7.77,0,0,1,291,446a82.22,82.22,0,0,0,7.83,2.8,5.74,5.74,0,0,0,4.54-1.4A14.6,14.6,0,0,0,305.28,445.88Z" transform="translate(-3.89 -98.72)"/><path class="cls-21" d="M307.9,450.16c-.22.37-3,5.13-4.74,5.64-1.17.33-4.37-.41-6.45-1a5.63,5.63,0,0,1-.76-2.23s6.1,1.38,6.83,1.4,2.1-.71,3.62-2.28C307.54,450.53,307.82,450.23,307.9,450.16Z" transform="translate(-3.89 -98.72)"/><path class="cls-21" d="M306.91,419c-.59,1.67,0,4.5,0,6.22a3,3,0,0,1-.46,1.63c.08-1.68-1.58-4.34-2.73-3.94s-2.08,3.25-5,6.91a4.55,4.55,0,0,1-5.11,1.81c3.35-1.91,7-10.62,8.61-12.22S307.5,417.33,306.91,419Z" transform="translate(-3.89 -98.72)"/><path class="cls-21" d="M334.6,416.58c-2.23,4.74-3.21,8.93-5,15.29-1.2,4.17-10.4,13.07-17.08,19.07a41.73,41.73,0,0,0,1.9-14.61c-.62-9.32,9.84-16.12,10-20.72.06-3,5-9.47,8.45-13.74a6.7,6.7,0,0,1,2.64,3.33C336.47,408.87,336.83,411.84,334.6,416.58Z" transform="translate(-3.89 -98.72)"/><path class="cls-21" d="M325.13,399.25c-2,2.34-8,9.08-10.41,10.29A22.88,22.88,0,0,1,309,411c.53-.2,1.07-.4,1.6-.64,4.61-2,11.31-10.65,11.31-10.65A9.45,9.45,0,0,1,325.13,399.25Z" transform="translate(-3.89 -98.72)"/><path class="cls-4" d="M347.79,409.41c-1.26,3.44-8.9,13.2-11.54,12.95a1.29,1.29,0,0,1-.21-.06c-2.33-.78-.71-10.51-4.47-16.11s-17.7-3.25-17.7-3.25c-.84.14-3.44-.42-1.37-2.41a1.37,1.37,0,0,0,.16-.18c1.94-2.13,2.7-7.42,3.53-9.76a6.69,6.69,0,0,1,4.53-3.65,3.72,3.72,0,0,1,2.69.2c2.3,1.26,14,2.62,17.79,3.35a5.11,5.11,0,0,1,.86.25c2.87,1.19,2.76,5,3.52,7.29C346.43,400.53,349,406,347.79,409.41Z" transform="translate(-3.89 -98.72)"/><path class="cls-24" d="M325.91,400.53a25.25,25.25,0,0,0-13.25-.18c1.94-2.13,2.7-7.42,3.53-9.76a6.69,6.69,0,0,1,4.53-3.65c3.56.81,7.21,3.15,7.6,4.38.52,1.68-4.6.43-6.12,2s5.27,2.74,8.21,4.82S334.28,403.2,325.91,400.53Z" transform="translate(-3.89 -98.72)"/><path class="cls-24" d="M347.79,409.41c-1.26,3.44-8.9,13.2-11.54,12.95a1.29,1.29,0,0,1-.21-.06,47.86,47.86,0,0,0,.21-10.3c-.81-6.8.55-7.76,3.79-12.28,1.95-2.72,2.16-6.44,2-9,2.87,1.19,2.76,5,3.52,7.29C346.43,400.53,349,406,347.79,409.41Z" transform="translate(-3.89 -98.72)"/><path class="cls-15" d="M361.14,201.91A80.38,80.38,0,0,1,374,221.52c4.74,10.88,11.72,26.69,9.9,37.76S379,276.35,379,276.35l5.18-10.43A90.7,90.7,0,0,1,382,279.56s-3.28,10.89-2.51,18.28.11,22.57-3.61,31-9.06,31.38-12,34.15-2.6,5-2.77,8.83-6.59,18.5-9.24,22.4a13,13,0,0,1-5.87,5l1.48,4.25s4.86-4.5,6.3-6.87,10.37-24.42,10.65-27.14.65-6.54,1.78-7.74,13.71-39.13,14.41-45.66.93-23.6,2-27.42,1.76-11.91,3-14,1.25-6.9,1.25-7.35a141.83,141.83,0,0,0-3.76-25.8c-3.35-14.15-10.64-32.14-24.58-41.84S361.14,201.91,361.14,201.91Z" transform="translate(-3.89 -98.72)"/><path class="cls-9" d="M326.06,388s-2.68-5.85,0-10.74,6.74-12.31,6.45-18.85,1.85-21.14,5.44-24.75a49.1,49.1,0,0,1,8.79-6.63l-6.14,2.83s4.46-5.62,8.23-6.87l3.77-1.26s-7.62.55-9.11,2.23-2.05,1.82-2.05,1.82-1.55-14.24.83-24.14,4-11.86,2.78-17-6.4-11.73-5.62-15,6.08-17.21,6.08-17.21-8.16,13.53-7.37,25.38,1.34,19.8-.05,25.24,1.53,14.93,1.25,20.79-1.8,8.1-3.9,10.75-6.42,17.13-7.54,23.84-1.76,15.37-3.53,19.41a35.3,35.3,0,0,0-2.33,8.55S320.52,387,326.06,388Z" transform="translate(-3.89 -98.72)"/><path class="cls-15" d="M339.36,390.17s3.76-1.2,5.15,2.2,3.76,11.42,4.46,12.76-1.18,5.87-2.23,7.34-6.14,8.62-8.79,9.89-3.42-.2-3.84-2.57-1.95-13.52-5.19-15.22a23.07,23.07,0,0,0-7.07-2.14s8.21-.57,10.38,3.55,3.09,14.36,3.26,14.78.59,1.63,1.73.68.59-6,.59-6,1.05,4.18,1.05,4.39,8.3-7.67,8.37-11a41,41,0,0,0-2.17-11.44c-.69-1.54-1.32-3.56-1.81-4.54a1.84,1.84,0,0,0-2.79-.35c-.7.77-3.57,5.17-4.44,6.14l-.86,1s3.9-6.21,3.9-7.47-3.07-1.46-4.18-1.81-5.51-.91-7.4-1.46a16.87,16.87,0,0,1-4-2.1s5.3,1.33,8.3,1.82S339.36,390.17,339.36,390.17Z" transform="translate(-3.89 -98.72)"/><path class="cls-15" d="M319.78,387.25s-3.53,1.17-4.16,3.49-1.11,6.31-2.23,7.7-2.45,3-1.67,3.64l.78.67s-1-1.18.89-2.22,1.35-3.27,2.24-4,6.22-.77,6.22-.77-6-.42-5.88-2S316.13,389.87,319.78,387.25Z" transform="translate(-3.89 -98.72)"/><path class="cls-15" d="M334,416.86a31.56,31.56,0,0,0-2.72,7c-1.05,4-2.44,9.7-5.3,12.77s-11.55,11.44-12.42,12.48a93.09,93.09,0,0,1-8.32,7.54c-1.29.83-3.89.28-5.6-.42s-2.44-.77-2.82-1.78-.49-1.22-.49-1.22a19.55,19.55,0,0,0,3.49.78h2.68l-4.65-1c-1-.22-2.15-.51-2.15-.51a7.21,7.21,0,0,0,1.61,3.08c1,.83,4.25,2.62,7,1.88s8.86-7,8.86-7,12.07-10.5,14.13-14.37,2.06-3.38,3.17-6.59,2.86-10.85,3.49-11.64S334,416.86,334,416.86Z" transform="translate(-3.89 -98.72)"/><path class="cls-15" d="M301.47,448.55s-.81,1.07-3,.68a47,47,0,0,1-7-2.47,5.24,5.24,0,0,0,.91,3.4,10.84,10.84,0,0,0,2.43,2s-2.63-.57-3.35-2.14a10.65,10.65,0,0,1-.62-4,4.72,4.72,0,0,1-3.07-5.79L285,439.12a4.9,4.9,0,0,1,5.83-4s-4.09-.18-4.92,3.62c0,0,5.31,2.16,7.31,2.89s3.32.89,4.55,1.43,4.44-1,5.68-2.12l1.59-1.41s-3.23,3.6-4.78,4.2a5.89,5.89,0,0,1-4.34-.38c-1.26-.5-7.68-2.62-7.68-2.62s-.17,2.37,1.19,3.62a18.17,18.17,0,0,0,6.28,3.46C297.73,448.36,299.5,449.33,301.47,448.55Z" transform="translate(-3.89 -98.72)"/><path class="cls-15" d="M316.43,405a16.36,16.36,0,0,1-6.63,5.26c-3.91,1.47-8.65,2.49-10.4,5.5a82.49,82.49,0,0,0-5.23,11.42,7.21,7.21,0,0,1-1.61,2.79,1,1,0,0,0,0,1.19c.46.7,1.75.7,1.75.7s-1.63-.68-1.34-1.37,1.62-2.54,2.77-5.09,3.59-9.55,5.3-10.78,7.59-3,8.2-3.38a40.39,40.39,0,0,0,5.34-2.86,20.41,20.41,0,0,0,3.43-4Z" transform="translate(-3.89 -98.72)"/></g><g id="Head"><path class="cls-15" d="M256.53,159.63s-5.73-25-5-27.73,10.19-15.7,11-18.84a21.06,21.06,0,0,0,.84-3.87l2.1,8.69s2.19-6.81,7.32-10.78,8.37-4.5,8.37-4.5-2.93,3.14-3.14,5c0,0,10.67-8.9,21.35-8.9l-3.88,4.19s13.71-2.3,15-1.15,8.14,7.43,10.14,7.43l-5.54.63s12.88,7.43,13.09,10.36,2.4,8.47,2.4,8.47l-5-3.34s5.13,11.51,7.64,13.91l-4.81-1.15s1.67,5.76,3.13,11l1.47,5.23-5.34-4.6s.84,6.8,2.2,9l1.36,2.2-4.64-.63a19.25,19.25,0,0,1-4,10.25c-3.74,4.61-17.45,19.57-30.95,16s-27.19-4.69-30.17-13.34S256.53,159.63,256.53,159.63Z" transform="translate(-3.89 -98.72)"/><path class="cls-20" d="M320.67,178.32a23.72,23.72,0,0,1-6.38,6.22l-.05,0-.48.22-1.24.59s-.14,1.7-.51,3.84c-.5,3-1.42,6.92-2.95,8.21a17.72,17.72,0,0,0-3.52,4.22c-.4.66-.62,1.09-.62,1.09s-6.21,25-16.69,44.6c0,0-11-20-15.2-30.18,0,0-10.82-17.52-10.15-26.32a12.52,12.52,0,0,1,1-4.36,8.46,8.46,0,0,1,.5-.94,6.61,6.61,0,0,1,.9-1.15l-1.76-1.18s-10.46-7.46-11.2-12.27-1.67-15,2.62-15.06,6.38,6.41,6.7,10.11,3,9,3,9l1.57-6.66v-4.13l3.92,1.74c-.21-.26-4-5.06-2.88-8.12a34.66,34.66,0,0,0,1.74-6.9l.36-1.89s5.43,8.79,9.52,10.25,5.12,1.47,5.12,1.47a9.88,9.88,0,0,1-4.91-4L277.57,154l6.48,3.34c2.75,1.42,3,1.55,3,1.55-.24-.26-4-4.54-4.39-6.47l-.42-2s9.39,7,14.32,7.22,6.93-.94,6.93-.94-4.81-2.2-5.86-3.87a28,28,0,0,1-1.89-3.77s8,4.93,11.21,6.07a16,16,0,0,0,4.49,1.16s-2.51-2.41-2.83-3.77a19.66,19.66,0,0,1-.31-3.46s2.93,4.5,5.65,5.87a20.42,20.42,0,0,1,4.71,3.34l-1.36-3.87,4.4,5.23s-.24,1.35-.57,3.12-.9,4.35-1.4,6a6.66,6.66,0,0,1-.75,1.85l-1,1.23c.09-.06.42-.31.87-.67,1.24-1,3.4-2.85,3.8-4a2,2,0,0,1,.17-.37,2.21,2.21,0,0,1,1.36-1,1.85,1.85,0,0,1,2.36,1.41C327.28,169.46,322,176.1,320.67,178.32Z" transform="translate(-3.89 -98.72)"/><path class="cls-21" d="M321.73,159.63s-.24,1.35-.57,3.12c-6.85,3.48-13.94,6.58-17.53,6.58-8.24,0-22.13-6.85-26.28-5.8s-11.69,4.28-7.15,12.29,7.54,14.58,7.15,18.9,1.8,8.75,1.92,9c-.45-.26-11.91-6.92-13.73-15.29a8.5,8.5,0,0,0-1.14-2.91,6.61,6.61,0,0,1,.9-1.15l-1.76-1.18s-10.46-7.46-11.2-12.27-1.67-15,2.62-15.06,6.38,6.41,6.7,10.11,3,9,3,9l1.57-6.66v-4.13l3.92,1.74c-.21-.26-4-5.06-2.88-8.12a34.66,34.66,0,0,0,1.74-6.9l.36-1.89s5.43,8.79,9.52,10.25,5.12,1.47,5.12,1.47a9.88,9.88,0,0,1-4.91-4L277.57,154l6.48,3.34c2.75,1.42,3,1.55,3,1.55-.24-.26-4-4.54-4.39-6.47l-.42-2s9.39,7,14.32,7.22,6.93-.94,6.93-.94-4.81-2.2-5.86-3.87a28,28,0,0,1-1.89-3.77s8,4.93,11.21,6.07a16,16,0,0,0,4.49,1.16s-2.51-2.41-2.83-3.77a19.66,19.66,0,0,1-.31-3.46s2.93,4.5,5.65,5.87a20.42,20.42,0,0,1,4.71,3.34l-1.36-3.87Z" transform="translate(-3.89 -98.72)"/><path class="cls-21" d="M305.54,201.64c-.4.66-.62,1.09-.62,1.09s-6.21,25-16.69,44.6c0,0-11-20-15.2-30.18,0,0-10.82-17.52-10.15-26.32a12.52,12.52,0,0,1,1-4.36c1.28,2.11,3.31,5.46,4.46,7.48C270.13,197.1,281,205,281,205a18.82,18.82,0,0,1-5.24-.41c-2.72-.62-8.78-7.43-9-3.77s8.9,18.63,12.67,25.23,7.11,7.74,12.76,2.4,8.65-24.17,8.65-24.17C303.22,202.39,304.66,201.7,305.54,201.64Z" transform="translate(-3.89 -98.72)"/><path class="cls-25" d="M299.65,204.74s-2.47,5.09-6.68,6.1-6.3,4.75-17.71-8.11C275.26,202.73,292.43,212.9,299.65,204.74Z" transform="translate(-3.89 -98.72)"/><path class="cls-15" d="M263.12,178.32s5.67,16.68,9.17,19.51l5.07,4.08s-8.27-3.6-11-9.21l-2.72-5.61Z" transform="translate(-3.89 -98.72)"/><path class="cls-21" d="M320.67,178.32a23.72,23.72,0,0,1-6.38,6.22l-.05,0-.48.22a9.85,9.85,0,0,1-.09-1.58l1.47-5.56a43.56,43.56,0,0,1,3.71-6.46c1.24-1,3.4-2.85,3.8-4a2,2,0,0,1,.17-.37,2.21,2.21,0,0,1,1.36-1,1.85,1.85,0,0,1,2.36,1.41C327.28,169.46,322,176.1,320.67,178.32Z" transform="translate(-3.89 -98.72)"/><path class="cls-21" d="M315.13,170.46A14.27,14.27,0,0,0,305,179.62c-2.82,7.85-3,11.62-4.23,12.19s-4.16,0-4.16,0,1.17-.26,1.54-2.2S302,168.37,315.13,170.46Z" transform="translate(-3.89 -98.72)"/><path class="cls-15" d="M283.37,205.54s7.9,2.86,10.63,1.29,14.81-6.56,17.76-16.21a15.37,15.37,0,0,1-5,10.24,49.28,49.28,0,0,1-12.87,7.64C292.63,208.92,289.38,209.17,283.37,205.54Z" transform="translate(-3.89 -98.72)"/><path class="cls-18" d="M261.83,174.14s-1.95-6.35-2.79-8.65-2.37-2.37-3.7-1.25-1,3.41-1,3.41,1.67-3.07,3.07-1.67a4,4,0,0,1,1.39,2.44s-1.39-1.68-2.3.42a4.48,4.48,0,0,0,1.88,5.3,11.27,11.27,0,0,1,2.51,2C261.41,176.51,262.77,177.16,261.83,174.14Z" transform="translate(-3.89 -98.72)"/><path class="cls-15" d="M316.59,174.64c-.14.34-2.44,5.82-2.35,9.92-1.11.51-1.72.81-1.72.81s1.8-7.7,2.94-9.22Z" transform="translate(-3.89 -98.72)"/><path class="cls-18" d="M316.26,175.49a20.7,20.7,0,0,1,4.21-4c1.92-1.11,3.52-1.6,3,0a5.35,5.35,0,0,1-1.12,2.11s.63-1.55-.21-1.55c0,0-2.23,0-2.51,1.55s2.07-1.6,1.07,1-2.76,4.94-4.08,5.71-2,.42-2,.42S315.54,176.34,316.26,175.49Z" transform="translate(-3.89 -98.72)"/><path class="cls-15" d="M315.13,170.46s-7.77-1.34-11.35,3.72-5.67,14-6.51,16.44h-2.72a12.6,12.6,0,0,0,2,1.52c.47.14,1.94-1,1.94-1S300.69,168.6,315.13,170.46Z" transform="translate(-3.89 -98.72)"/><path class="cls-15" d="M292.25,173.6a10.39,10.39,0,0,0-8.37-6.09c-6.35-.76-7.81,2.79-7.81,2.79S284,164.85,292.25,173.6Z" transform="translate(-3.89 -98.72)"/><ellipse class="cls-15" cx="279.19" cy="84.76" rx="1.36" ry="2.99"/><ellipse class="cls-15" cx="304.58" cy="185.51" rx="2.03" ry="0.96" transform="translate(55.21 345.48) rotate(-77.84)"/><path class="cls-15" d="M286.67,199.25a13.54,13.54,0,0,1-6.4-5.64S281.79,199.16,286.67,199.25Z" transform="translate(-3.89 -98.72)"/><ellipse class="cls-13" cx="279.48" cy="83.41" rx="0.39" ry="0.87"/><ellipse class="cls-13" cx="304.84" cy="184.64" rx="0.63" ry="0.3" transform="translate(56.26 345.05) rotate(-77.84)"/><path class="cls-15" d="M264.23,187s-2.52,3.84-.06,10.75,12,24.54,13.19,27.1,4.11,9.74,4.11,9.74-9.87-19-10.71-20.47-9.15-17.75-8.84-23.53,2-6.66,2-6.66l.32,3.07" transform="translate(-3.89 -98.72)"/><path class="cls-15" d="M325.15,165.25a2.32,2.32,0,0,1,1.64,2.79,23.86,23.86,0,0,1-2.66,6c-.45.45-3.1,4.43-3.73,5.13s-3.81,3.8-3.81,3.8,3.82-4.05,4.5-5.62,3.64-5.34,4.4-7,1.05-3.06.67-3.59-.7-1-1.5-1.05l-.8-.06Z" transform="translate(-3.89 -98.72)"/><path class="cls-15" d="M256.22,155.55s-2.2-.47-3.35.84-1.49,6-1.3,9.21.51,7.52,1.19,8,4.73,5.51,6.6,6.89,4.55,3.47,4.55,3.47l-.26-1.36s-5.24-3.65-7.12-6.14-3.71-4.17-3.77-5.63-1-9-.21-11.57,2.53-4.27,5.66-2S256.22,155.55,256.22,155.55Z" transform="translate(-3.89 -98.72)"/></g><g id="Elements"><path class="cls-26" d="M472.74,118.34c.55,1.91,11.9,53.74,11.9,53.74s.81,1.35.67,2-22.4,42.85-24.8,44.37-63,13.65-64.24,13.82-2-2-2.63-3.41c-.05-.11-.09-.23-.14-.33-.58-1.35,5.67-14.82,8.09-19.95a63.09,63.09,0,0,1,5.4-9.16,12.62,12.62,0,0,1-3.12-2.49c-1.4-1.61-10.38-43.29-11.07-46.42s-1.36-6.46-.19-7.48,73-26.68,75.34-27.87a2.62,2.62,0,0,1,2.75.16A5.56,5.56,0,0,1,472.74,118.34Z" transform="translate(-3.89 -98.72)"/><path class="cls-27" d="M472.74,118.34c.55,1.91,11.9,53.74,11.9,53.74s.81,1.35.67,2-22.4,42.85-24.8,44.37-63,13.65-64.24,13.82-2-2-2.63-3.41c7.69-1.26,36.2-6,47.28-8.94,12.87-3.41,16.23-3.19,18.4-5.82s24-40.15,23.9-41.56-11.59-53.17-12-54.76c-.15-.52-.31-1.43-.48-2.46A5.56,5.56,0,0,1,472.74,118.34Z" transform="translate(-3.89 -98.72)"/><path class="cls-28" d="M407.9,197.08s-1.75.55-2.7-3.09-11-47-10.59-48.46,73.71-28.58,73.75-28.21,12.68,51.81,12,53.4-2.95,1.59-5.56,2.76S409.1,197.39,407.9,197.08Z" transform="translate(-3.89 -98.72)"/><polygon class="cls-13" points="403.11 100.74 479.33 73.86 479.01 74.73 402.43 101.7 403.11 100.74"/><path class="cls-15" d="M476.67,178.6l-.16.34h0c-.81,1.68-2.16,4.23-3.78,7.18l-.19.34c-1.28,2.34-2.74,4.93-4.23,7.54l-.18.33c-1.32,2.29-2.65,4.6-3.93,6.79a3.62,3.62,0,0,0-.2.33c-1.48,2.51-2.86,4.83-4,6.75a2.92,2.92,0,0,0-.21.32,36.59,36.59,0,0,1-3.19,4.77c-1.07.72-31.69,7.83-49.3,11.42a2.65,2.65,0,0,0-.3.06c-2.88.58-5.4,1.07-7.37,1.42l-.33,0c-2.48.44-4,.63-4.16.47,0,0,.72-1.91,1.84-4.68l.12-.31c.52-1.27,1.1-2.71,1.74-4.22l.13-.31c.53-1.27,1.1-2.59,1.67-3.91.06-.1.1-.21.15-.31.69-1.56,1.4-3.1,2.09-4.54a2.39,2.39,0,0,1,.16-.32c.79-1.64,1.57-3.13,2.28-4.32l.21-.36a8.09,8.09,0,0,1,2-2.48,28.63,28.63,0,0,1,3.5-1.48l.44-.16h0c1.82-.7,4.19-1.55,6.94-2.53l.4-.14,5.68-2,.38-.14,6.06-2.08.36-.13,6.46-2.21.35-.12c2.93-1,5.89-2,8.81-3a3.57,3.57,0,0,1,.38-.14l10.17-3.43.41-.13,11.71-3.93.44-.14h0l7.24-2.43C477.47,176.7,477.24,177.38,476.67,178.6Z" transform="translate(-3.89 -98.72)"/><path class="cls-22" d="M468.42,181.48c.49-.76,1-1.53,1.58-2.27l-.44.14c-.54.75-1.05,1.51-1.55,2.27l-11.64,4.07c.45-.8.94-1.62,1.48-2.41l-.41.13c-.52.81-1,1.62-1.46,2.41l-10,3.5c.42-.84.87-1.67,1.33-2.48a3.57,3.57,0,0,0-.38.14c-.46.8-.9,1.63-1.32,2.46l-8.69,3c.39-.86.79-1.71,1.2-2.52l-.35.12c-.41.81-.81,1.66-1.19,2.52l-6.6,2.3c.44-.89.88-1.76,1.33-2.61l-.36.13c-.46.84-.9,1.71-1.33,2.6l-6.16,2.15c.46-.91.94-1.8,1.43-2.67l-.38.14c-.49.86-1,1.76-1.42,2.67l-5.89,2c.53-.91,1.07-1.83,1.63-2.72l-.4.14c-.56.88-1.09,1.79-1.61,2.72l-6.71,2.34c.46-.87.91-1.71,1.37-2.53l-.44.16c-.46.81-.91,1.65-1.36,2.52l-4.14,1.44-.21.36,4.16-1.45c-.73,1.42-1.45,2.9-2.16,4.41L403,208.1a2.39,2.39,0,0,0-.16.32l4.28-1.35c-.72,1.54-1.42,3.11-2.1,4.69l-4.27,1.2c-.05.1-.09.21-.15.31l4.29-1.19c-.59,1.35-1.16,2.71-1.71,4.06l-4.25,1-.13.31,4.26-1c-.61,1.49-1.19,3-1.74,4.35l-4.26.91L397,222l4.26-.91c-.71,1.82-1.35,3.55-1.94,5.12l.33,0c.59-1.59,1.26-3.33,2-5.16l6.89-1.49c-.6,1.92-1.09,3.69-1.49,5.23a2.65,2.65,0,0,1,.3-.06c.4-1.55.9-3.32,1.49-5.23l51-11a2.92,2.92,0,0,1,.21-.32L437.58,213c.13-.6.6-2.6,1.41-5.41l25-6.15a3.62,3.62,0,0,1,.2-.33l-25.13,6.18c.45-1.56,1-3.35,1.65-5.28l27.41-7.69.18-.33-6.58,1.85a56.41,56.41,0,0,1,2.6-6.8l8.21-2.59.19-.34-8.26,2.6a55.65,55.65,0,0,1,3.72-6.87l8.32-2.91h0l.16-.34Zm-12.64,4.69a58.85,58.85,0,0,0-3,6.24l-9.62,3c.79-1.93,1.66-3.88,2.61-5.77ZM445.4,189.8c-.94,1.88-1.8,3.82-2.58,5.75l-8.23,2.58c.66-1.78,1.38-3.57,2.14-5.31Zm-9,3.13c-.76,1.74-1.47,3.53-2.12,5.31l-6.69,2.11c.68-1.72,1.4-3.44,2.2-5.11Zm-17.88,15-6.31,1.77c.67-1.64,1.38-3.29,2.16-4.94l6.15-2C419.78,204.62,419.11,206.35,418.51,208Zm2.35-5.22,6.28-2c-.71,1.82-1.34,3.62-1.9,5.32l-6.41,1.79C419.44,206.25,420.12,204.51,420.86,202.75Zm-2.46,5.54c-.6,1.63-1.12,3.16-1.56,4.48l-6.38,1.58c.49-1.41,1-2.84,1.62-4.29Zm.32-.1,6.41-1.8c-.56,1.72-1,3.31-1.44,4.7l-6.54,1.61C417.59,211.36,418.11,209.84,418.72,208.19Zm6.72-1.88,6.77-1.9c-.55,1.8-1,3.47-1.43,4.93L424,211C424.4,209.61,424.88,208,425.44,206.31Zm.12-.32c.55-1.7,1.19-3.5,1.9-5.32l6.7-2.12c-.7,1.91-1.31,3.79-1.86,5.55Zm3.86-10.62c-.78,1.66-1.5,3.37-2.16,5.08l-6.27,2c.7-1.64,1.45-3.28,2.26-4.9Zm-6.53,2.28c-.8,1.61-1.54,3.25-2.23,4.88l-6.14,1.93c.75-1.6,1.57-3.19,2.44-4.74Zm-13,4.54,6.71-2.34c-.86,1.54-1.67,3.14-2.42,4.72l-6.48,2C408.41,205.09,409.14,203.6,409.87,202.19ZM407.53,207l6.48-2c-.77,1.64-1.47,3.29-2.13,4.92l-6.46,1.82Q406.46,209.27,407.53,207Zm-2.26,5,6.48-1.82c-.58,1.44-1.11,2.88-1.61,4.27l-6.59,1.63C404.11,214.69,404.68,213.34,405.27,212Zm3.27,7.28-6.86,1.48c.55-1.41,1.14-2.88,1.75-4.37l6.61-1.63C409.49,216.29,409,217.81,408.54,219.25Zm.31-.06c.45-1.45.95-3,1.51-4.54l6.38-1.57c-.83,2.55-1.33,4.33-1.43,4.72Zm6.76-1.45c.15-.58.65-2.32,1.44-4.73l6.56-1.62c-.76,2.64-1.2,4.5-1.3,4.91Zm7-1.51c.14-.57.59-2.4,1.31-4.91l6.79-1.68c-.74,2.78-1.18,4.72-1.27,5.13Zm14.69-3.15-7.57,1.62c.13-.58.56-2.48,1.27-5.13l7.69-1.9C437.85,210.62,437.37,212.66,437.29,213.08Zm1.48-5.7-7.69,1.89c.4-1.46.87-3.15,1.43-5l7.9-2.21C439.76,204,439.22,205.82,438.77,207.38Zm1.73-5.58L432.61,204c.54-1.78,1.17-3.65,1.87-5.56l8.2-2.59C441.87,197.91,441.14,199.92,440.5,201.8Zm.32-.09c.64-1.89,1.37-3.9,2.2-6l9.61-3a51.2,51.2,0,0,0-2.14,6.27Zm20.6-5.77-10.63,3a52.51,52.51,0,0,1,2.18-6.29l11-3.48A57.15,57.15,0,0,0,461.42,195.94Zm2.71-7.12-11,3.49a61.26,61.26,0,0,1,3.06-6.27l11.62-4A57.9,57.9,0,0,0,464.13,188.82Z" transform="translate(-3.89 -98.72)"/><path class="cls-13" d="M443.18,142.34a18,18,0,1,0,7.27,24.43A18,18,0,0,0,443.18,142.34ZM448,165.45a15.25,15.25,0,1,1-6.15-20.67A15.27,15.27,0,0,1,448,165.45Zm-21.25-10a2.11,2.11,0,1,1,2.62,1.42A2.11,2.11,0,0,1,426.76,155.43Zm9.16-2.72a2.11,2.11,0,1,1,2.62,1.42A2.1,2.1,0,0,1,435.92,152.71Zm7.23,6.85a8.61,8.61,0,0,1-15,4.43,1,1,0,0,1,.15-1.44,1.29,1.29,0,0,1,.35-.18,1,1,0,0,1,1.08.33,6.58,6.58,0,0,0,11.38-3.39,1,1,0,1,1,2,.25Z" transform="translate(-3.89 -98.72)"/><path class="cls-29" d="M414,295.36c-4.69-1.64-11.23-5.36-12.29-9.91s2.72-13.72,5-20c1.7-4.71,3.31-7.81,4.59-9.19a2.45,2.45,0,0,1,1.15-.82c1.39-.35,11.17,2.81,17.39,7.6s6.84,6.81,6.19,8a.21.21,0,0,0,0,.06s-9.07,15.48-10.93,19.45A8.87,8.87,0,0,1,414,295.36Z" transform="translate(-3.89 -98.72)"/><path class="cls-30" d="M426,268.66c-6.75-2.83-11.4-7.06-13.57-10.36a11.09,11.09,0,0,1-1.07-2,2.45,2.45,0,0,1,1.15-.82c1.39-.35,11.17,2.81,17.39,7.6s6.84,6.81,6.19,8a20.24,20.24,0,0,1-2.79-.26A31,31,0,0,1,426,268.66Z" transform="translate(-3.89 -98.72)"/><path class="cls-9" d="M426,268.66c-6.75-2.83-11.4-7.06-13.57-10.36,1.84-.55,5.37.24,11.35,3.62,6.24,3.52,8.62,7,9.52,8.92A31,31,0,0,1,426,268.66Z" transform="translate(-3.89 -98.72)"/><path class="cls-31" d="M432.9,274.74s5.83,2.51,6.14,4.55-6,13.13-8.78,13.31-6.38-2.16-6.38-2.16.61-2.51,1.31-3,2.74,1.1,4.21,1.28,4.06-5.12,5-7-.18-2.44-3.06-3.87S432.9,274.74,432.9,274.74Z" transform="translate(-3.89 -98.72)"/><path class="cls-9" d="M416.46,276.41c2.15-.52,3.87,1.85,5.28,1.41s.3-4.29-3.06-4.87A11.59,11.59,0,0,0,412,274.2c-1.2.53-1.05,1.16-.21,2.19S414.3,276.94,416.46,276.41Z" transform="translate(-3.89 -98.72)"/><path class="cls-9" d="M412.37,280.07a9.6,9.6,0,0,0,6.72.65c2.49-.71,2.69-1.69.8-2.81a5.09,5.09,0,0,0-4.95-.47c-1.69.63-3.28-.39-3.7-.36C409.6,277.2,411.14,279.27,412.37,280.07Z" transform="translate(-3.89 -98.72)"/><path class="cls-32" d="M433.27,258.43s.78,1.08,2.56-3.21,12.42-8.35,16.66-7.71,5.66,6.6,8.58,7,7.82-1.13,8.71,2-1.94,9-7.63,8.7-7.88-7.48-14.12-8.44-2.76,1.63-5.37,3.53a8.31,8.31,0,0,1-7.59,1.34C433.11,260.91,431.82,259.39,433.27,258.43Z" transform="translate(-3.89 -98.72)"/><path class="cls-33" d="M432.5,246.87s5.16,1.18,5.94-1.28,1.76-5,4.46-6.17,3.11-4.29-.08-5.58a5.4,5.4,0,0,0-7.4,3.56c-1,3.26-2.71,5.91-4.08,6.34S430,246.59,432.5,246.87Z" transform="translate(-3.89 -98.72)"/><path class="cls-34" d="M428.32,249.5s1.49,3.58-2.42,4.4-5.7-3.71-2.75-4.9S428.08,248.53,428.32,249.5Z" transform="translate(-3.89 -98.72)"/><path class="cls-35" d="M196,178v-4l.22-.36,23.28-36.58,0,0,1.86-2.94c3.81-2.09,3.48,2,3.48,2l-1.71,2.7-.05.08-23.13,36.55-.1.16-1.67,1Z" transform="translate(-3.89 -98.72)"/><path class="cls-5" d="M223.12,138.81a16.53,16.53,0,0,0-3.63-1.78l1.86-2.94c3.81-2.09,3.48,2,3.48,2Z" transform="translate(-3.89 -98.72)"/><path class="cls-18" d="M196,178v-2.45a3.1,3.1,0,0,1,2.2,1.08Z" transform="translate(-3.89 -98.72)"/><path class="cls-36" d="M199.94,175.44a11.37,11.37,0,0,0-3.75-1.8l23.28-36.58a7.41,7.41,0,0,1,3.6,1.83Z" transform="translate(-3.89 -98.72)"/><path class="cls-13" d="M227.6,457.47s-44-24.49-39.23-25.64a64.41,64.41,0,0,1,10.77-1.37s-16.68-9.28-20-11.65-8.91-5.07-13.66-3.72-7.25,1.72-11.44-.84A26,26,0,0,0,146,411s21.77,12.52,26.23,14,9.49,9,8.93,11.52S227.6,457.47,227.6,457.47Z" transform="translate(-3.89 -98.72)"/><path class="cls-13" d="M216.14,466.92s-30.56-7.87-42-11.45-20.93-11.69-20.93-11.69,4.86,11,15.26,15.13S216.14,466.92,216.14,466.92Z" transform="translate(-3.89 -98.72)"/><path class="cls-13" d="M310.78,464.44s1.46-10,11.8-11.42,35.15-16.61,25.54-15.15-15.61,2.7-15.61,2.7,27.61-15.5,34-21.77,9.88-3.09,3.23,2.16-13.06,12.89-12.51,17.16.31,7.8-8.08,12S319.33,456.06,310.78,464.44Z" transform="translate(-3.89 -98.72)"/><path class="cls-13" d="M298.15,469.26s5.12,2,16.88,0a83,83,0,0,0,21-6.7S335.13,476.1,298.15,469.26Z" transform="translate(-3.89 -98.72)"/><path class="cls-13" d="M298.15,406.55s2.26-11.64,6.1-15.81,10.92-14.73,13.1-18.1,7-11.91,7-11.91,1,13.37-3.74,19.06S302.44,391.64,298.15,406.55Z" transform="translate(-3.89 -98.72)"/></g></svg>